<?xml version="1.0" encoding="UTF-8"?>
<svg xmlns="http://www.w3.org/2000/svg" xmlns:xlink="http://www.w3.org/1999/xlink" width="504" height="360" viewBox="0 0 504 360">
<defs>
<g>
<g id="glyph-0-0">
<path d="M 0.390625 0 L 0.390625 -8.609375 L 7.21875 -8.609375 L 7.21875 0 Z M 6.140625 -1.078125 L 6.140625 -7.53125 L 1.46875 -7.53125 L 1.46875 -1.078125 Z M 6.140625 -1.078125 "/>
</g>
<g id="glyph-0-1">
<path d="M 0.5 -3.890625 L 3.4375 -3.890625 L 3.4375 -2.796875 L 0.5 -2.796875 Z M 0.5 -3.890625 "/>
</g>
<g id="glyph-0-2">
<path d="M 3.96875 -2.96875 L 3.96875 -6.78125 L 1.28125 -2.96875 Z M 3.984375 0 L 3.984375 -2.046875 L 0.3125 -2.046875 L 0.3125 -3.078125 L 4.15625 -8.421875 L 5.046875 -8.421875 L 5.046875 -2.96875 L 6.28125 -2.96875 L 6.28125 -2.046875 L 5.046875 -2.046875 L 5.046875 0 Z M 3.984375 0 "/>
</g>
<g id="glyph-0-3">
<path d="M 0.375 0 C 0.414062 -0.71875 0.566406 -1.34375 0.828125 -1.875 C 1.085938 -2.414062 1.59375 -2.90625 2.34375 -3.34375 L 3.46875 -4 C 3.96875 -4.289062 4.320312 -4.539062 4.53125 -4.75 C 4.851562 -5.070312 5.015625 -5.441406 5.015625 -5.859375 C 5.015625 -6.347656 4.863281 -6.734375 4.5625 -7.015625 C 4.269531 -7.304688 3.882812 -7.453125 3.40625 -7.453125 C 2.675781 -7.453125 2.175781 -7.179688 1.90625 -6.640625 C 1.75 -6.335938 1.664062 -5.929688 1.65625 -5.421875 L 0.578125 -5.421875 C 0.585938 -6.148438 0.722656 -6.742188 0.984375 -7.203125 C 1.441406 -8.015625 2.25 -8.421875 3.40625 -8.421875 C 4.363281 -8.421875 5.0625 -8.160156 5.5 -7.640625 C 5.945312 -7.117188 6.171875 -6.539062 6.171875 -5.90625 C 6.171875 -5.238281 5.9375 -4.664062 5.46875 -4.1875 C 5.195312 -3.90625 4.707031 -3.566406 4 -3.171875 L 3.1875 -2.734375 C 2.8125 -2.523438 2.515625 -2.320312 2.296875 -2.125 C 1.898438 -1.789062 1.648438 -1.414062 1.546875 -1 L 6.140625 -1 L 6.140625 0 Z M 0.375 0 "/>
</g>
<g id="glyph-0-4">
<path d="M 3.25 -8.390625 C 4.332031 -8.390625 5.117188 -7.941406 5.609375 -7.046875 C 5.984375 -6.359375 6.171875 -5.410156 6.171875 -4.203125 C 6.171875 -3.066406 6 -2.125 5.65625 -1.375 C 5.164062 -0.300781 4.359375 0.234375 3.234375 0.234375 C 2.234375 0.234375 1.484375 -0.203125 0.984375 -1.078125 C 0.578125 -1.816406 0.375 -2.800781 0.375 -4.03125 C 0.375 -4.976562 0.5 -5.796875 0.75 -6.484375 C 1.207031 -7.753906 2.039062 -8.390625 3.25 -8.390625 Z M 3.234375 -0.734375 C 3.785156 -0.734375 4.222656 -0.972656 4.546875 -1.453125 C 4.867188 -1.941406 5.03125 -2.847656 5.03125 -4.171875 C 5.03125 -5.117188 4.910156 -5.898438 4.671875 -6.515625 C 4.441406 -7.128906 3.988281 -7.4375 3.3125 -7.4375 C 2.6875 -7.4375 2.226562 -7.144531 1.9375 -6.5625 C 1.65625 -5.976562 1.515625 -5.117188 1.515625 -3.984375 C 1.515625 -3.128906 1.609375 -2.441406 1.796875 -1.921875 C 2.078125 -1.128906 2.554688 -0.734375 3.234375 -0.734375 Z M 3.234375 -0.734375 "/>
</g>
<g id="glyph-0-5">
<path d="M 1.671875 -2.78125 C 1.703125 -2.289062 1.816406 -1.894531 2.015625 -1.59375 C 2.410156 -1.019531 3.09375 -0.734375 4.0625 -0.734375 C 4.5 -0.734375 4.898438 -0.796875 5.265625 -0.921875 C 5.960938 -1.160156 6.3125 -1.59375 6.3125 -2.21875 C 6.3125 -2.6875 6.160156 -3.019531 5.859375 -3.21875 C 5.566406 -3.414062 5.101562 -3.585938 4.46875 -3.734375 L 3.3125 -4 C 2.539062 -4.164062 2 -4.351562 1.6875 -4.5625 C 1.144531 -4.925781 0.875 -5.460938 0.875 -6.171875 C 0.875 -6.953125 1.140625 -7.585938 1.671875 -8.078125 C 2.203125 -8.578125 2.957031 -8.828125 3.9375 -8.828125 C 4.84375 -8.828125 5.609375 -8.609375 6.234375 -8.171875 C 6.867188 -7.734375 7.1875 -7.035156 7.1875 -6.078125 L 6.09375 -6.078125 C 6.03125 -6.546875 5.90625 -6.898438 5.71875 -7.140625 C 5.363281 -7.585938 4.757812 -7.8125 3.90625 -7.8125 C 3.21875 -7.8125 2.722656 -7.664062 2.421875 -7.375 C 2.117188 -7.09375 1.96875 -6.757812 1.96875 -6.375 C 1.96875 -5.957031 2.144531 -5.648438 2.5 -5.453125 C 2.726562 -5.328125 3.25 -5.171875 4.0625 -4.984375 L 5.28125 -4.703125 C 5.851562 -4.566406 6.300781 -4.382812 6.625 -4.15625 C 7.164062 -3.757812 7.4375 -3.175781 7.4375 -2.40625 C 7.4375 -1.457031 7.085938 -0.773438 6.390625 -0.359375 C 5.703125 0.046875 4.898438 0.25 3.984375 0.25 C 2.910156 0.25 2.070312 -0.0195312 1.46875 -0.5625 C 0.863281 -1.113281 0.566406 -1.851562 0.578125 -2.78125 Z M 4.03125 -8.84375 Z M 4.03125 -8.84375 "/>
</g>
<g id="glyph-0-6">
<path d="M 3.1875 -6.453125 C 3.894531 -6.453125 4.46875 -6.28125 4.90625 -5.9375 C 5.351562 -5.59375 5.625 -5.003906 5.71875 -4.171875 L 4.6875 -4.171875 C 4.625 -4.554688 4.484375 -4.875 4.265625 -5.125 C 4.046875 -5.382812 3.6875 -5.515625 3.1875 -5.515625 C 2.519531 -5.515625 2.039062 -5.1875 1.75 -4.53125 C 1.5625 -4.101562 1.46875 -3.578125 1.46875 -2.953125 C 1.46875 -2.328125 1.597656 -1.796875 1.859375 -1.359375 C 2.128906 -0.929688 2.550781 -0.71875 3.125 -0.71875 C 3.5625 -0.71875 3.90625 -0.851562 4.15625 -1.125 C 4.414062 -1.394531 4.59375 -1.757812 4.6875 -2.21875 L 5.71875 -2.21875 C 5.601562 -1.382812 5.3125 -0.773438 4.84375 -0.390625 C 4.375 -0.00390625 3.773438 0.1875 3.046875 0.1875 C 2.222656 0.1875 1.566406 -0.113281 1.078125 -0.71875 C 0.585938 -1.320312 0.34375 -2.070312 0.34375 -2.96875 C 0.34375 -4.070312 0.609375 -4.925781 1.140625 -5.53125 C 1.679688 -6.144531 2.363281 -6.453125 3.1875 -6.453125 Z M 3.03125 -6.421875 Z M 3.03125 -6.421875 "/>
</g>
<g id="glyph-0-7">
<path d="M 3.265625 -0.6875 C 3.960938 -0.6875 4.441406 -0.945312 4.703125 -1.46875 C 4.960938 -2 5.09375 -2.585938 5.09375 -3.234375 C 5.09375 -3.828125 5 -4.304688 4.8125 -4.671875 C 4.507812 -5.242188 4 -5.53125 3.28125 -5.53125 C 2.632812 -5.53125 2.164062 -5.285156 1.875 -4.796875 C 1.582031 -4.304688 1.4375 -3.710938 1.4375 -3.015625 C 1.4375 -2.347656 1.582031 -1.789062 1.875 -1.34375 C 2.164062 -0.90625 2.628906 -0.6875 3.265625 -0.6875 Z M 3.3125 -6.453125 C 4.113281 -6.453125 4.789062 -6.179688 5.34375 -5.640625 C 5.90625 -5.109375 6.1875 -4.316406 6.1875 -3.265625 C 6.1875 -2.253906 5.941406 -1.414062 5.453125 -0.75 C 4.960938 -0.09375 4.203125 0.234375 3.171875 0.234375 C 2.304688 0.234375 1.617188 -0.0546875 1.109375 -0.640625 C 0.597656 -1.234375 0.34375 -2.019531 0.34375 -3 C 0.34375 -4.050781 0.609375 -4.890625 1.140625 -5.515625 C 1.679688 -6.140625 2.40625 -6.453125 3.3125 -6.453125 Z M 3.265625 -6.421875 Z M 3.265625 -6.421875 "/>
</g>
<g id="glyph-0-8">
<path d="M 0.796875 -6.28125 L 1.8125 -6.28125 L 1.8125 -5.1875 C 1.882812 -5.40625 2.082031 -5.664062 2.40625 -5.96875 C 2.726562 -6.269531 3.097656 -6.421875 3.515625 -6.421875 C 3.535156 -6.421875 3.566406 -6.414062 3.609375 -6.40625 C 3.660156 -6.40625 3.742188 -6.398438 3.859375 -6.390625 L 3.859375 -5.28125 C 3.796875 -5.289062 3.738281 -5.296875 3.6875 -5.296875 C 3.632812 -5.296875 3.578125 -5.296875 3.515625 -5.296875 C 2.984375 -5.296875 2.570312 -5.125 2.28125 -4.78125 C 2 -4.445312 1.859375 -4.054688 1.859375 -3.609375 L 1.859375 0 L 0.796875 0 Z M 0.796875 -6.28125 "/>
</g>
<g id="glyph-0-9">
<path d="M 3.390625 -6.421875 C 3.835938 -6.421875 4.269531 -6.316406 4.6875 -6.109375 C 5.101562 -5.898438 5.421875 -5.628906 5.640625 -5.296875 C 5.847656 -4.972656 5.988281 -4.601562 6.0625 -4.1875 C 6.125 -3.894531 6.15625 -3.429688 6.15625 -2.796875 L 1.546875 -2.796875 C 1.566406 -2.160156 1.71875 -1.648438 2 -1.265625 C 2.28125 -0.878906 2.71875 -0.6875 3.3125 -0.6875 C 3.863281 -0.6875 4.300781 -0.867188 4.625 -1.234375 C 4.8125 -1.441406 4.945312 -1.6875 5.03125 -1.96875 L 6.0625 -1.96875 C 6.039062 -1.738281 5.953125 -1.484375 5.796875 -1.203125 C 5.640625 -0.921875 5.46875 -0.6875 5.28125 -0.5 C 4.957031 -0.1875 4.554688 0.0195312 4.078125 0.125 C 3.828125 0.1875 3.539062 0.21875 3.21875 0.21875 C 2.4375 0.21875 1.773438 -0.0625 1.234375 -0.625 C 0.691406 -1.195312 0.421875 -1.992188 0.421875 -3.015625 C 0.421875 -4.023438 0.691406 -4.84375 1.234375 -5.46875 C 1.785156 -6.101562 2.503906 -6.421875 3.390625 -6.421875 Z M 5.0625 -3.640625 C 5.019531 -4.097656 4.921875 -4.460938 4.765625 -4.734375 C 4.484375 -5.242188 4.003906 -5.5 3.328125 -5.5 C 2.835938 -5.5 2.425781 -5.320312 2.09375 -4.96875 C 1.769531 -4.625 1.597656 -4.179688 1.578125 -3.640625 Z M 3.28125 -6.421875 Z M 3.28125 -6.421875 "/>
</g>
<g id="glyph-0-10">
</g>
<g id="glyph-0-11">
<path d="M 4.15625 -4.96875 C 4.644531 -4.96875 5.023438 -5.035156 5.296875 -5.171875 C 5.722656 -5.390625 5.9375 -5.773438 5.9375 -6.328125 C 5.9375 -6.890625 5.707031 -7.269531 5.25 -7.46875 C 5 -7.582031 4.617188 -7.640625 4.109375 -7.640625 L 2.03125 -7.640625 L 2.03125 -4.96875 Z M 4.546875 -1 C 5.253906 -1 5.765625 -1.207031 6.078125 -1.625 C 6.265625 -1.882812 6.359375 -2.195312 6.359375 -2.5625 C 6.359375 -3.1875 6.078125 -3.613281 5.515625 -3.84375 C 5.222656 -3.96875 4.832031 -4.03125 4.34375 -4.03125 L 2.03125 -4.03125 L 2.03125 -1 Z M 0.890625 -8.609375 L 4.578125 -8.609375 C 5.585938 -8.609375 6.304688 -8.304688 6.734375 -7.703125 C 6.984375 -7.347656 7.109375 -6.9375 7.109375 -6.46875 C 7.109375 -5.925781 6.953125 -5.484375 6.640625 -5.140625 C 6.484375 -4.953125 6.253906 -4.785156 5.953125 -4.640625 C 6.390625 -4.472656 6.71875 -4.28125 6.9375 -4.0625 C 7.332031 -3.6875 7.53125 -3.171875 7.53125 -2.515625 C 7.53125 -1.960938 7.351562 -1.460938 7 -1.015625 C 6.476562 -0.335938 5.65625 0 4.53125 0 L 0.890625 0 Z M 0.890625 -8.609375 "/>
</g>
<g id="glyph-0-12">
<path d="M 1.578125 -1.671875 C 1.578125 -1.367188 1.6875 -1.128906 1.90625 -0.953125 C 2.132812 -0.773438 2.398438 -0.6875 2.703125 -0.6875 C 3.078125 -0.6875 3.4375 -0.769531 3.78125 -0.9375 C 4.375 -1.226562 4.671875 -1.695312 4.671875 -2.34375 L 4.671875 -3.1875 C 4.535156 -3.113281 4.363281 -3.046875 4.15625 -2.984375 C 3.957031 -2.929688 3.757812 -2.894531 3.5625 -2.875 L 2.9375 -2.796875 C 2.550781 -2.742188 2.257812 -2.660156 2.0625 -2.546875 C 1.738281 -2.367188 1.578125 -2.078125 1.578125 -1.671875 Z M 4.140625 -3.796875 C 4.378906 -3.828125 4.539062 -3.929688 4.625 -4.109375 C 4.664062 -4.203125 4.6875 -4.335938 4.6875 -4.515625 C 4.6875 -4.867188 4.554688 -5.125 4.296875 -5.28125 C 4.046875 -5.445312 3.6875 -5.53125 3.21875 -5.53125 C 2.664062 -5.53125 2.273438 -5.382812 2.046875 -5.09375 C 1.910156 -4.925781 1.820312 -4.679688 1.78125 -4.359375 L 0.796875 -4.359375 C 0.816406 -5.128906 1.066406 -5.664062 1.546875 -5.96875 C 2.035156 -6.269531 2.597656 -6.421875 3.234375 -6.421875 C 3.972656 -6.421875 4.570312 -6.28125 5.03125 -6 C 5.488281 -5.71875 5.71875 -5.28125 5.71875 -4.6875 L 5.71875 -1.078125 C 5.71875 -0.972656 5.738281 -0.882812 5.78125 -0.8125 C 5.832031 -0.75 5.929688 -0.71875 6.078125 -0.71875 C 6.117188 -0.71875 6.164062 -0.71875 6.21875 -0.71875 C 6.28125 -0.726562 6.347656 -0.738281 6.421875 -0.75 L 6.421875 0.03125 C 6.253906 0.0703125 6.125 0.0976562 6.03125 0.109375 C 5.945312 0.128906 5.832031 0.140625 5.6875 0.140625 C 5.320312 0.140625 5.0625 0.0078125 4.90625 -0.25 C 4.8125 -0.382812 4.75 -0.578125 4.71875 -0.828125 C 4.5 -0.546875 4.1875 -0.300781 3.78125 -0.09375 C 3.382812 0.113281 2.945312 0.21875 2.46875 0.21875 C 1.882812 0.21875 1.40625 0.0390625 1.03125 -0.3125 C 0.664062 -0.664062 0.484375 -1.109375 0.484375 -1.640625 C 0.484375 -2.222656 0.664062 -2.675781 1.03125 -3 C 1.394531 -3.320312 1.867188 -3.519531 2.453125 -3.59375 Z M 3.265625 -6.421875 Z M 3.265625 -6.421875 "/>
</g>
<g id="glyph-0-13">
<path d="M 1.4375 -3.0625 C 1.4375 -2.394531 1.578125 -1.832031 1.859375 -1.375 C 2.148438 -0.925781 2.609375 -0.703125 3.234375 -0.703125 C 3.722656 -0.703125 4.125 -0.910156 4.4375 -1.328125 C 4.757812 -1.742188 4.921875 -2.347656 4.921875 -3.140625 C 4.921875 -3.929688 4.753906 -4.515625 4.421875 -4.890625 C 4.097656 -5.273438 3.703125 -5.46875 3.234375 -5.46875 C 2.703125 -5.46875 2.269531 -5.265625 1.9375 -4.859375 C 1.601562 -4.453125 1.4375 -3.851562 1.4375 -3.0625 Z M 3.03125 -6.390625 C 3.507812 -6.390625 3.910156 -6.285156 4.234375 -6.078125 C 4.421875 -5.960938 4.632812 -5.757812 4.875 -5.46875 L 4.875 -8.640625 L 5.890625 -8.640625 L 5.890625 0 L 4.9375 0 L 4.9375 -0.875 C 4.695312 -0.488281 4.40625 -0.207031 4.0625 -0.03125 C 3.726562 0.132812 3.34375 0.21875 2.90625 0.21875 C 2.207031 0.21875 1.601562 -0.0703125 1.09375 -0.65625 C 0.582031 -1.25 0.328125 -2.03125 0.328125 -3 C 0.328125 -3.914062 0.5625 -4.707031 1.03125 -5.375 C 1.5 -6.050781 2.164062 -6.390625 3.03125 -6.390625 Z M 3.03125 -6.390625 "/>
</g>
<g id="glyph-0-14">
<path d="M 0.796875 -8.609375 L 1.859375 -8.609375 L 1.859375 0 L 0.796875 0 Z M 0.796875 -8.609375 "/>
</g>
<g id="glyph-0-15">
<path d="M 1.40625 -1.96875 C 1.4375 -1.613281 1.523438 -1.34375 1.671875 -1.15625 C 1.929688 -0.820312 2.390625 -0.65625 3.046875 -0.65625 C 3.441406 -0.65625 3.785156 -0.738281 4.078125 -0.90625 C 4.378906 -1.070312 4.53125 -1.332031 4.53125 -1.6875 C 4.53125 -1.957031 4.410156 -2.164062 4.171875 -2.3125 C 4.015625 -2.394531 3.710938 -2.492188 3.265625 -2.609375 L 2.421875 -2.8125 C 1.890625 -2.945312 1.5 -3.097656 1.25 -3.265625 C 0.789062 -3.546875 0.5625 -3.941406 0.5625 -4.453125 C 0.5625 -5.046875 0.773438 -5.523438 1.203125 -5.890625 C 1.628906 -6.253906 2.207031 -6.4375 2.9375 -6.4375 C 3.875 -6.4375 4.550781 -6.160156 4.96875 -5.609375 C 5.238281 -5.253906 5.367188 -4.875 5.359375 -4.46875 L 4.359375 -4.46875 C 4.335938 -4.707031 4.253906 -4.925781 4.109375 -5.125 C 3.867188 -5.394531 3.445312 -5.53125 2.84375 -5.53125 C 2.445312 -5.53125 2.144531 -5.453125 1.9375 -5.296875 C 1.738281 -5.148438 1.640625 -4.953125 1.640625 -4.703125 C 1.640625 -4.429688 1.773438 -4.210938 2.046875 -4.046875 C 2.203125 -3.953125 2.429688 -3.867188 2.734375 -3.796875 L 3.421875 -3.625 C 4.179688 -3.4375 4.691406 -3.257812 4.953125 -3.09375 C 5.359375 -2.820312 5.5625 -2.394531 5.5625 -1.8125 C 5.5625 -1.257812 5.347656 -0.78125 4.921875 -0.375 C 4.503906 0.03125 3.863281 0.234375 3 0.234375 C 2.0625 0.234375 1.394531 0.0234375 1 -0.390625 C 0.613281 -0.816406 0.410156 -1.34375 0.390625 -1.96875 Z M 2.953125 -6.421875 Z M 2.953125 -6.421875 "/>
</g>
<g id="glyph-0-16">
<path d="M 0.984375 -8.03125 L 2.046875 -8.03125 L 2.046875 -6.28125 L 3.046875 -6.28125 L 3.046875 -5.421875 L 2.046875 -5.421875 L 2.046875 -1.3125 C 2.046875 -1.09375 2.125 -0.945312 2.28125 -0.875 C 2.351562 -0.832031 2.488281 -0.8125 2.6875 -0.8125 C 2.738281 -0.8125 2.789062 -0.8125 2.84375 -0.8125 C 2.90625 -0.820312 2.972656 -0.828125 3.046875 -0.828125 L 3.046875 0 C 2.929688 0.03125 2.804688 0.0507812 2.671875 0.0625 C 2.546875 0.0820312 2.40625 0.09375 2.25 0.09375 C 1.757812 0.09375 1.425781 -0.03125 1.25 -0.28125 C 1.070312 -0.53125 0.984375 -0.859375 0.984375 -1.265625 L 0.984375 -5.421875 L 0.140625 -5.421875 L 0.140625 -6.28125 L 0.984375 -6.28125 Z M 0.984375 -8.03125 "/>
</g>
<g id="glyph-0-17">
<path d="M 0.78125 -6.28125 L 1.78125 -6.28125 L 1.78125 -5.390625 C 2.070312 -5.753906 2.382812 -6.015625 2.71875 -6.171875 C 3.050781 -6.335938 3.421875 -6.421875 3.828125 -6.421875 C 4.710938 -6.421875 5.3125 -6.109375 5.625 -5.484375 C 5.800781 -5.140625 5.890625 -4.65625 5.890625 -4.03125 L 5.890625 0 L 4.8125 0 L 4.8125 -3.953125 C 4.8125 -4.335938 4.753906 -4.644531 4.640625 -4.875 C 4.453125 -5.269531 4.113281 -5.46875 3.625 -5.46875 C 3.375 -5.46875 3.171875 -5.441406 3.015625 -5.390625 C 2.722656 -5.304688 2.46875 -5.132812 2.25 -4.875 C 2.070312 -4.664062 1.957031 -4.453125 1.90625 -4.234375 C 1.851562 -4.015625 1.828125 -3.695312 1.828125 -3.28125 L 1.828125 0 L 0.78125 0 Z M 3.25 -6.421875 Z M 3.25 -6.421875 "/>
</g>
<g id="glyph-0-18">
<path d="M 0.78125 -6.25 L 1.84375 -6.25 L 1.84375 0 L 0.78125 0 Z M 0.78125 -8.609375 L 1.84375 -8.609375 L 1.84375 -7.40625 L 0.78125 -7.40625 Z M 0.78125 -8.609375 "/>
</g>
<g id="glyph-0-19">
<path d="M 3.390625 -6.421875 C 3.835938 -6.421875 4.269531 -6.316406 4.6875 -6.109375 C 5.101562 -5.898438 5.421875 -5.628906 5.640625 -5.296875 C 5.847656 -4.972656 5.988281 -4.601562 6.0625 -4.1875 C 6.125 -3.894531 6.15625 -3.429688 6.15625 -2.796875 L 1.546875 -2.796875 C 1.566406 -2.160156 1.71875 -1.648438 2 -1.265625 C 2.28125 -0.878906 2.71875 -0.6875 3.3125 -0.6875 C 3.863281 -0.6875 4.300781 -0.867188 4.625 -1.234375 C 4.8125 -1.441406 4.945312 -1.6875 5.03125 -1.96875 L 6.0625 -1.96875 C 6.039062 -1.738281 5.953125 -1.484375 5.796875 -1.203125 C 5.640625 -0.921875 5.46875 -0.6875 5.28125 -0.5 C 4.957031 -0.1875 4.554688 0.0195312 4.078125 0.125 C 3.828125 0.1875 3.539062 0.21875 3.21875 0.21875 C 2.4375 0.21875 1.773438 -0.0625 1.234375 -0.625 C 0.691406 -1.195312 0.421875 -1.992188 0.421875 -3.015625 C 0.421875 -4.023438 0.691406 -4.84375 1.234375 -5.46875 C 1.785156 -6.101562 2.503906 -6.421875 3.390625 -6.421875 Z M 5.0625 -3.640625 C 5.019531 -4.097656 4.921875 -4.460938 4.765625 -4.734375 C 4.484375 -5.242188 4.003906 -5.5 3.328125 -5.5 C 2.835938 -5.5 2.425781 -5.320312 2.09375 -4.96875 C 1.769531 -4.625 1.597656 -4.179688 1.578125 -3.640625 Z M 3.28125 -6.421875 Z M 4.609375 -8.796875 L 3.046875 -7.109375 L 2.234375 -7.109375 L 3.296875 -8.796875 Z M 4.609375 -8.796875 "/>
</g>
<g id="glyph-0-20">
<path d="M 3.546875 -8.75 C 2.929688 -7.5625 2.535156 -6.6875 2.359375 -6.125 C 2.078125 -5.257812 1.9375 -4.269531 1.9375 -3.15625 C 1.9375 -2.019531 2.097656 -0.984375 2.421875 -0.046875 C 2.609375 0.535156 2.988281 1.367188 3.5625 2.453125 L 2.859375 2.453125 C 2.285156 1.554688 1.929688 0.984375 1.796875 0.734375 C 1.660156 0.492188 1.515625 0.160156 1.359375 -0.265625 C 1.140625 -0.835938 0.984375 -1.453125 0.890625 -2.109375 C 0.847656 -2.453125 0.828125 -2.773438 0.828125 -3.078125 C 0.828125 -4.234375 1.007812 -5.265625 1.375 -6.171875 C 1.601562 -6.742188 2.082031 -7.601562 2.8125 -8.75 Z M 3.546875 -8.75 "/>
</g>
<g id="glyph-0-21">
<path d="M 1.65625 0 L 0.25 0 L 3.328125 -4.40625 L 0.4375 -8.609375 L 1.90625 -8.609375 L 4.09375 -5.3125 L 6.28125 -8.609375 L 7.671875 -8.609375 L 4.78125 -4.40625 L 7.8125 0 L 6.359375 0 L 4.03125 -3.546875 Z M 1.65625 0 "/>
</g>
<g id="glyph-0-22">
<path d="M 1.15625 -5.9375 L 1.15625 -6.75 C 1.914062 -6.820312 2.441406 -6.945312 2.734375 -7.125 C 3.035156 -7.300781 3.265625 -7.710938 3.421875 -8.359375 L 4.25 -8.359375 L 4.25 0 L 3.125 0 L 3.125 -5.9375 Z M 1.15625 -5.9375 "/>
</g>
<g id="glyph-0-23">
<path d="M 0.421875 2.453125 C 1.035156 1.242188 1.4375 0.359375 1.625 -0.203125 C 1.894531 -1.035156 2.03125 -2.019531 2.03125 -3.15625 C 2.03125 -4.28125 1.867188 -5.3125 1.546875 -6.25 C 1.359375 -6.832031 0.976562 -7.664062 0.40625 -8.75 L 1.109375 -8.75 C 1.710938 -7.789062 2.078125 -7.195312 2.203125 -6.96875 C 2.328125 -6.75 2.460938 -6.441406 2.609375 -6.046875 C 2.796875 -5.554688 2.929688 -5.070312 3.015625 -4.59375 C 3.097656 -4.113281 3.140625 -3.65625 3.140625 -3.21875 C 3.140625 -2.0625 2.953125 -1.03125 2.578125 -0.125 C 2.347656 0.457031 1.875 1.316406 1.15625 2.453125 Z M 0.421875 2.453125 "/>
</g>
<g id="glyph-1-0">
<path d="M 0 -0.390625 L -8.609375 -0.390625 L -8.609375 -7.21875 L 0 -7.21875 Z M -1.078125 -6.140625 L -7.53125 -6.140625 L -7.53125 -1.46875 L -1.078125 -1.46875 Z M -1.078125 -6.140625 "/>
</g>
<g id="glyph-1-1">
<path d="M -3.890625 -0.5 L -3.890625 -3.4375 L -2.796875 -3.4375 L -2.796875 -0.5 Z M -3.890625 -0.5 "/>
</g>
<g id="glyph-1-2">
<path d="M -5.9375 -1.15625 L -6.75 -1.15625 C -6.820312 -1.914062 -6.945312 -2.441406 -7.125 -2.734375 C -7.300781 -3.035156 -7.710938 -3.265625 -8.359375 -3.421875 L -8.359375 -4.25 L 0 -4.25 L 0 -3.125 L -5.9375 -3.125 Z M -5.9375 -1.15625 "/>
</g>
<g id="glyph-1-3">
<path d="M -8.390625 -3.25 C -8.390625 -4.332031 -7.941406 -5.117188 -7.046875 -5.609375 C -6.359375 -5.984375 -5.410156 -6.171875 -4.203125 -6.171875 C -3.066406 -6.171875 -2.125 -6 -1.375 -5.65625 C -0.300781 -5.164062 0.234375 -4.359375 0.234375 -3.234375 C 0.234375 -2.234375 -0.203125 -1.484375 -1.078125 -0.984375 C -1.816406 -0.578125 -2.800781 -0.375 -4.03125 -0.375 C -4.976562 -0.375 -5.796875 -0.5 -6.484375 -0.75 C -7.753906 -1.207031 -8.390625 -2.039062 -8.390625 -3.25 Z M -0.734375 -3.234375 C -0.734375 -3.785156 -0.972656 -4.222656 -1.453125 -4.546875 C -1.941406 -4.867188 -2.847656 -5.03125 -4.171875 -5.03125 C -5.117188 -5.03125 -5.898438 -4.910156 -6.515625 -4.671875 C -7.128906 -4.441406 -7.4375 -3.988281 -7.4375 -3.3125 C -7.4375 -2.6875 -7.144531 -2.226562 -6.5625 -1.9375 C -5.976562 -1.65625 -5.117188 -1.515625 -3.984375 -1.515625 C -3.128906 -1.515625 -2.441406 -1.609375 -1.921875 -1.796875 C -1.128906 -2.078125 -0.734375 -2.554688 -0.734375 -3.234375 Z M -0.734375 -3.234375 "/>
</g>
<g id="glyph-1-4">
<path d="M 0 -0.375 C -0.71875 -0.414062 -1.34375 -0.566406 -1.875 -0.828125 C -2.414062 -1.085938 -2.90625 -1.59375 -3.34375 -2.34375 L -4 -3.46875 C -4.289062 -3.96875 -4.539062 -4.320312 -4.75 -4.53125 C -5.070312 -4.851562 -5.441406 -5.015625 -5.859375 -5.015625 C -6.347656 -5.015625 -6.734375 -4.863281 -7.015625 -4.5625 C -7.304688 -4.269531 -7.453125 -3.882812 -7.453125 -3.40625 C -7.453125 -2.675781 -7.179688 -2.175781 -6.640625 -1.90625 C -6.335938 -1.75 -5.929688 -1.664062 -5.421875 -1.65625 L -5.421875 -0.578125 C -6.148438 -0.585938 -6.742188 -0.722656 -7.203125 -0.984375 C -8.015625 -1.441406 -8.421875 -2.25 -8.421875 -3.40625 C -8.421875 -4.363281 -8.160156 -5.0625 -7.640625 -5.5 C -7.117188 -5.945312 -6.539062 -6.171875 -5.90625 -6.171875 C -5.238281 -6.171875 -4.664062 -5.9375 -4.1875 -5.46875 C -3.90625 -5.195312 -3.566406 -4.707031 -3.171875 -4 L -2.734375 -3.1875 C -2.523438 -2.8125 -2.320312 -2.515625 -2.125 -2.296875 C -1.789062 -1.898438 -1.414062 -1.648438 -1 -1.546875 L -1 -6.140625 L 0 -6.140625 Z M 0 -0.375 "/>
</g>
<g id="glyph-1-5">
<path d="M 0.234375 -3.125 C 0.234375 -2.125 -0.0351562 -1.398438 -0.578125 -0.953125 C -1.128906 -0.503906 -1.796875 -0.28125 -2.578125 -0.28125 L -2.578125 -1.390625 C -2.035156 -1.429688 -1.640625 -1.53125 -1.390625 -1.6875 C -0.953125 -1.96875 -0.734375 -2.460938 -0.734375 -3.171875 C -0.734375 -3.734375 -0.878906 -4.179688 -1.171875 -4.515625 C -1.472656 -4.847656 -1.859375 -5.015625 -2.328125 -5.015625 C -2.898438 -5.015625 -3.300781 -4.835938 -3.53125 -4.484375 C -3.769531 -4.128906 -3.890625 -3.640625 -3.890625 -3.015625 C -3.890625 -2.941406 -3.882812 -2.867188 -3.875 -2.796875 C -3.875 -2.722656 -3.875 -2.648438 -3.875 -2.578125 L -4.8125 -2.578125 C -4.789062 -2.691406 -4.78125 -2.785156 -4.78125 -2.859375 C -4.78125 -2.929688 -4.78125 -3.007812 -4.78125 -3.09375 C -4.78125 -3.488281 -4.84375 -3.8125 -4.96875 -4.0625 C -5.1875 -4.507812 -5.578125 -4.734375 -6.140625 -4.734375 C -6.554688 -4.734375 -6.875 -4.582031 -7.09375 -4.28125 C -7.320312 -3.988281 -7.4375 -3.644531 -7.4375 -3.25 C -7.4375 -2.550781 -7.203125 -2.066406 -6.734375 -1.796875 C -6.484375 -1.648438 -6.117188 -1.566406 -5.640625 -1.546875 L -5.640625 -0.5 C -6.265625 -0.5 -6.796875 -0.625 -7.234375 -0.875 C -8.015625 -1.300781 -8.40625 -2.054688 -8.40625 -3.140625 C -8.40625 -3.992188 -8.210938 -4.65625 -7.828125 -5.125 C -7.453125 -5.59375 -6.898438 -5.828125 -6.171875 -5.828125 C -5.660156 -5.828125 -5.242188 -5.691406 -4.921875 -5.421875 C -4.722656 -5.242188 -4.566406 -5.019531 -4.453125 -4.75 C -4.328125 -5.1875 -4.09375 -5.53125 -3.75 -5.78125 C -3.40625 -6.03125 -2.984375 -6.15625 -2.484375 -6.15625 C -1.679688 -6.15625 -1.023438 -5.890625 -0.515625 -5.359375 C -0.015625 -4.835938 0.234375 -4.09375 0.234375 -3.125 Z M 0.234375 -3.125 "/>
</g>
<g id="glyph-1-6">
<path d="M -2.78125 -1.671875 C -2.289062 -1.703125 -1.894531 -1.816406 -1.59375 -2.015625 C -1.019531 -2.410156 -0.734375 -3.09375 -0.734375 -4.0625 C -0.734375 -4.5 -0.796875 -4.898438 -0.921875 -5.265625 C -1.160156 -5.960938 -1.59375 -6.3125 -2.21875 -6.3125 C -2.6875 -6.3125 -3.019531 -6.160156 -3.21875 -5.859375 C -3.414062 -5.566406 -3.585938 -5.101562 -3.734375 -4.46875 L -4 -3.3125 C -4.164062 -2.539062 -4.351562 -2 -4.5625 -1.6875 C -4.925781 -1.144531 -5.460938 -0.875 -6.171875 -0.875 C -6.953125 -0.875 -7.585938 -1.140625 -8.078125 -1.671875 C -8.578125 -2.203125 -8.828125 -2.957031 -8.828125 -3.9375 C -8.828125 -4.84375 -8.609375 -5.609375 -8.171875 -6.234375 C -7.734375 -6.867188 -7.035156 -7.1875 -6.078125 -7.1875 L -6.078125 -6.09375 C -6.546875 -6.03125 -6.898438 -5.90625 -7.140625 -5.71875 C -7.585938 -5.363281 -7.8125 -4.757812 -7.8125 -3.90625 C -7.8125 -3.21875 -7.664062 -2.722656 -7.375 -2.421875 C -7.09375 -2.117188 -6.757812 -1.96875 -6.375 -1.96875 C -5.957031 -1.96875 -5.648438 -2.144531 -5.453125 -2.5 C -5.328125 -2.726562 -5.171875 -3.25 -4.984375 -4.0625 L -4.703125 -5.28125 C -4.566406 -5.851562 -4.382812 -6.300781 -4.15625 -6.625 C -3.757812 -7.164062 -3.175781 -7.4375 -2.40625 -7.4375 C -1.457031 -7.4375 -0.773438 -7.085938 -0.359375 -6.390625 C 0.046875 -5.703125 0.25 -4.898438 0.25 -3.984375 C 0.25 -2.910156 -0.0195312 -2.070312 -0.5625 -1.46875 C -1.113281 -0.863281 -1.851562 -0.566406 -2.78125 -0.578125 Z M -8.84375 -4.03125 Z M -8.84375 -4.03125 "/>
</g>
<g id="glyph-1-7">
<path d="M -6.453125 -3.1875 C -6.453125 -3.894531 -6.28125 -4.46875 -5.9375 -4.90625 C -5.59375 -5.351562 -5.003906 -5.625 -4.171875 -5.71875 L -4.171875 -4.6875 C -4.554688 -4.625 -4.875 -4.484375 -5.125 -4.265625 C -5.382812 -4.046875 -5.515625 -3.6875 -5.515625 -3.1875 C -5.515625 -2.519531 -5.1875 -2.039062 -4.53125 -1.75 C -4.101562 -1.5625 -3.578125 -1.46875 -2.953125 -1.46875 C -2.328125 -1.46875 -1.796875 -1.597656 -1.359375 -1.859375 C -0.929688 -2.128906 -0.71875 -2.550781 -0.71875 -3.125 C -0.71875 -3.5625 -0.851562 -3.90625 -1.125 -4.15625 C -1.394531 -4.414062 -1.757812 -4.59375 -2.21875 -4.6875 L -2.21875 -5.71875 C -1.382812 -5.601562 -0.773438 -5.3125 -0.390625 -4.84375 C -0.00390625 -4.375 0.1875 -3.773438 0.1875 -3.046875 C 0.1875 -2.222656 -0.113281 -1.566406 -0.71875 -1.078125 C -1.320312 -0.585938 -2.070312 -0.34375 -2.96875 -0.34375 C -4.070312 -0.34375 -4.925781 -0.609375 -5.53125 -1.140625 C -6.144531 -1.679688 -6.453125 -2.363281 -6.453125 -3.1875 Z M -6.421875 -3.03125 Z M -6.421875 -3.03125 "/>
</g>
<g id="glyph-1-8">
<path d="M -0.6875 -3.265625 C -0.6875 -3.960938 -0.945312 -4.441406 -1.46875 -4.703125 C -2 -4.960938 -2.585938 -5.09375 -3.234375 -5.09375 C -3.828125 -5.09375 -4.304688 -5 -4.671875 -4.8125 C -5.242188 -4.507812 -5.53125 -4 -5.53125 -3.28125 C -5.53125 -2.632812 -5.285156 -2.164062 -4.796875 -1.875 C -4.304688 -1.582031 -3.710938 -1.4375 -3.015625 -1.4375 C -2.347656 -1.4375 -1.789062 -1.582031 -1.34375 -1.875 C -0.90625 -2.164062 -0.6875 -2.628906 -0.6875 -3.265625 Z M -6.453125 -3.3125 C -6.453125 -4.113281 -6.179688 -4.789062 -5.640625 -5.34375 C -5.109375 -5.90625 -4.316406 -6.1875 -3.265625 -6.1875 C -2.253906 -6.1875 -1.414062 -5.941406 -0.75 -5.453125 C -0.09375 -4.960938 0.234375 -4.203125 0.234375 -3.171875 C 0.234375 -2.304688 -0.0546875 -1.617188 -0.640625 -1.109375 C -1.234375 -0.597656 -2.019531 -0.34375 -3 -0.34375 C -4.050781 -0.34375 -4.890625 -0.609375 -5.515625 -1.140625 C -6.140625 -1.679688 -6.453125 -2.40625 -6.453125 -3.3125 Z M -6.421875 -3.265625 Z M -6.421875 -3.265625 "/>
</g>
<g id="glyph-1-9">
<path d="M -6.28125 -0.796875 L -6.28125 -1.8125 L -5.1875 -1.8125 C -5.40625 -1.882812 -5.664062 -2.082031 -5.96875 -2.40625 C -6.269531 -2.726562 -6.421875 -3.097656 -6.421875 -3.515625 C -6.421875 -3.535156 -6.414062 -3.566406 -6.40625 -3.609375 C -6.40625 -3.660156 -6.398438 -3.742188 -6.390625 -3.859375 L -5.28125 -3.859375 C -5.289062 -3.796875 -5.296875 -3.738281 -5.296875 -3.6875 C -5.296875 -3.632812 -5.296875 -3.578125 -5.296875 -3.515625 C -5.296875 -2.984375 -5.125 -2.570312 -4.78125 -2.28125 C -4.445312 -2 -4.054688 -1.859375 -3.609375 -1.859375 L 0 -1.859375 L 0 -0.796875 Z M -6.28125 -0.796875 "/>
</g>
<g id="glyph-1-10">
<path d="M -6.421875 -3.390625 C -6.421875 -3.835938 -6.316406 -4.269531 -6.109375 -4.6875 C -5.898438 -5.101562 -5.628906 -5.421875 -5.296875 -5.640625 C -4.972656 -5.847656 -4.601562 -5.988281 -4.1875 -6.0625 C -3.894531 -6.125 -3.429688 -6.15625 -2.796875 -6.15625 L -2.796875 -1.546875 C -2.160156 -1.566406 -1.648438 -1.71875 -1.265625 -2 C -0.878906 -2.28125 -0.6875 -2.71875 -0.6875 -3.3125 C -0.6875 -3.863281 -0.867188 -4.300781 -1.234375 -4.625 C -1.441406 -4.8125 -1.6875 -4.945312 -1.96875 -5.03125 L -1.96875 -6.0625 C -1.738281 -6.039062 -1.484375 -5.953125 -1.203125 -5.796875 C -0.921875 -5.640625 -0.6875 -5.46875 -0.5 -5.28125 C -0.1875 -4.957031 0.0195312 -4.554688 0.125 -4.078125 C 0.1875 -3.828125 0.21875 -3.539062 0.21875 -3.21875 C 0.21875 -2.4375 -0.0625 -1.773438 -0.625 -1.234375 C -1.195312 -0.691406 -1.992188 -0.421875 -3.015625 -0.421875 C -4.023438 -0.421875 -4.84375 -0.691406 -5.46875 -1.234375 C -6.101562 -1.785156 -6.421875 -2.503906 -6.421875 -3.390625 Z M -3.640625 -5.0625 C -4.097656 -5.019531 -4.460938 -4.921875 -4.734375 -4.765625 C -5.242188 -4.484375 -5.5 -4.003906 -5.5 -3.328125 C -5.5 -2.835938 -5.320312 -2.425781 -4.96875 -2.09375 C -4.625 -1.769531 -4.179688 -1.597656 -3.640625 -1.578125 Z M -6.421875 -3.28125 Z M -6.421875 -3.28125 "/>
</g>
<g id="glyph-1-11">
</g>
<g id="glyph-1-12">
<path d="M -8.609375 -0.890625 L -8.609375 -2.5625 L -1.328125 -5.03125 L -8.609375 -7.484375 L -8.609375 -9.140625 L 0 -9.140625 L 0 -8.03125 L -5.078125 -8.03125 C -5.253906 -8.03125 -5.546875 -8.03125 -5.953125 -8.03125 C -6.359375 -8.039062 -6.796875 -8.046875 -7.265625 -8.046875 L 0 -5.59375 L 0 -4.4375 L -7.265625 -1.96875 L -7 -1.96875 C -6.789062 -1.96875 -6.46875 -1.972656 -6.03125 -1.984375 C -5.601562 -1.992188 -5.285156 -2 -5.078125 -2 L 0 -2 L 0 -0.890625 Z M -8.609375 -0.890625 "/>
</g>
<g id="glyph-1-13">
<path d="M -1.671875 -1.578125 C -1.367188 -1.578125 -1.128906 -1.6875 -0.953125 -1.90625 C -0.773438 -2.132812 -0.6875 -2.398438 -0.6875 -2.703125 C -0.6875 -3.078125 -0.769531 -3.4375 -0.9375 -3.78125 C -1.226562 -4.375 -1.695312 -4.671875 -2.34375 -4.671875 L -3.1875 -4.671875 C -3.113281 -4.535156 -3.046875 -4.363281 -2.984375 -4.15625 C -2.929688 -3.957031 -2.894531 -3.757812 -2.875 -3.5625 L -2.796875 -2.9375 C -2.742188 -2.550781 -2.660156 -2.257812 -2.546875 -2.0625 C -2.367188 -1.738281 -2.078125 -1.578125 -1.671875 -1.578125 Z M -3.796875 -4.140625 C -3.828125 -4.378906 -3.929688 -4.539062 -4.109375 -4.625 C -4.203125 -4.664062 -4.335938 -4.6875 -4.515625 -4.6875 C -4.867188 -4.6875 -5.125 -4.554688 -5.28125 -4.296875 C -5.445312 -4.046875 -5.53125 -3.6875 -5.53125 -3.21875 C -5.53125 -2.664062 -5.382812 -2.273438 -5.09375 -2.046875 C -4.925781 -1.910156 -4.679688 -1.820312 -4.359375 -1.78125 L -4.359375 -0.796875 C -5.128906 -0.816406 -5.664062 -1.066406 -5.96875 -1.546875 C -6.269531 -2.035156 -6.421875 -2.597656 -6.421875 -3.234375 C -6.421875 -3.972656 -6.28125 -4.570312 -6 -5.03125 C -5.71875 -5.488281 -5.28125 -5.71875 -4.6875 -5.71875 L -1.078125 -5.71875 C -0.972656 -5.71875 -0.882812 -5.738281 -0.8125 -5.78125 C -0.75 -5.832031 -0.71875 -5.929688 -0.71875 -6.078125 C -0.71875 -6.117188 -0.71875 -6.164062 -0.71875 -6.21875 C -0.726562 -6.28125 -0.738281 -6.347656 -0.75 -6.421875 L 0.03125 -6.421875 C 0.0703125 -6.253906 0.0976562 -6.125 0.109375 -6.03125 C 0.128906 -5.945312 0.140625 -5.832031 0.140625 -5.6875 C 0.140625 -5.320312 0.0078125 -5.0625 -0.25 -4.90625 C -0.382812 -4.8125 -0.578125 -4.75 -0.828125 -4.71875 C -0.546875 -4.5 -0.300781 -4.1875 -0.09375 -3.78125 C 0.113281 -3.382812 0.21875 -2.945312 0.21875 -2.46875 C 0.21875 -1.882812 0.0390625 -1.40625 -0.3125 -1.03125 C -0.664062 -0.664062 -1.109375 -0.484375 -1.640625 -0.484375 C -2.222656 -0.484375 -2.675781 -0.664062 -3 -1.03125 C -3.320312 -1.394531 -3.519531 -1.867188 -3.59375 -2.453125 Z M -6.421875 -3.265625 Z M -6.421875 -3.265625 "/>
</g>
<g id="glyph-1-14">
<path d="M -8.640625 -0.78125 L -8.640625 -1.828125 L -5.421875 -1.828125 C -5.742188 -2.078125 -5.96875 -2.300781 -6.09375 -2.5 C -6.3125 -2.84375 -6.421875 -3.269531 -6.421875 -3.78125 C -6.421875 -4.6875 -6.101562 -5.300781 -5.46875 -5.625 C -5.125 -5.800781 -4.644531 -5.890625 -4.03125 -5.890625 L 0 -5.890625 L 0 -4.8125 L -3.953125 -4.8125 C -4.410156 -4.8125 -4.75 -4.75 -4.96875 -4.625 C -5.3125 -4.4375 -5.484375 -4.078125 -5.484375 -3.546875 C -5.484375 -3.109375 -5.332031 -2.710938 -5.03125 -2.359375 C -4.726562 -2.003906 -4.160156 -1.828125 -3.328125 -1.828125 L 0 -1.828125 L 0 -0.78125 Z M -8.640625 -0.78125 "/>
</g>
<g id="glyph-1-15">
<path d="M -8.609375 -0.796875 L -8.609375 -1.859375 L 0 -1.859375 L 0 -0.796875 Z M -8.609375 -0.796875 "/>
</g>
<g id="glyph-1-16">
<path d="M -1.96875 -1.40625 C -1.613281 -1.4375 -1.34375 -1.523438 -1.15625 -1.671875 C -0.820312 -1.929688 -0.65625 -2.390625 -0.65625 -3.046875 C -0.65625 -3.441406 -0.738281 -3.785156 -0.90625 -4.078125 C -1.070312 -4.378906 -1.332031 -4.53125 -1.6875 -4.53125 C -1.957031 -4.53125 -2.164062 -4.410156 -2.3125 -4.171875 C -2.394531 -4.015625 -2.492188 -3.710938 -2.609375 -3.265625 L -2.8125 -2.421875 C -2.945312 -1.890625 -3.097656 -1.5 -3.265625 -1.25 C -3.546875 -0.789062 -3.941406 -0.5625 -4.453125 -0.5625 C -5.046875 -0.5625 -5.523438 -0.773438 -5.890625 -1.203125 C -6.253906 -1.628906 -6.4375 -2.207031 -6.4375 -2.9375 C -6.4375 -3.875 -6.160156 -4.550781 -5.609375 -4.96875 C -5.253906 -5.238281 -4.875 -5.367188 -4.46875 -5.359375 L -4.46875 -4.359375 C -4.707031 -4.335938 -4.925781 -4.253906 -5.125 -4.109375 C -5.394531 -3.867188 -5.53125 -3.445312 -5.53125 -2.84375 C -5.53125 -2.445312 -5.453125 -2.144531 -5.296875 -1.9375 C -5.148438 -1.738281 -4.953125 -1.640625 -4.703125 -1.640625 C -4.429688 -1.640625 -4.210938 -1.773438 -4.046875 -2.046875 C -3.953125 -2.203125 -3.867188 -2.429688 -3.796875 -2.734375 L -3.625 -3.421875 C -3.4375 -4.179688 -3.257812 -4.691406 -3.09375 -4.953125 C -2.820312 -5.359375 -2.394531 -5.5625 -1.8125 -5.5625 C -1.257812 -5.5625 -0.78125 -5.347656 -0.375 -4.921875 C 0.03125 -4.503906 0.234375 -3.863281 0.234375 -3 C 0.234375 -2.0625 0.0234375 -1.394531 -0.390625 -1 C -0.816406 -0.613281 -1.34375 -0.410156 -1.96875 -0.390625 Z M -6.421875 -2.953125 Z M -6.421875 -2.953125 "/>
</g>
<g id="glyph-1-17">
<path d="M -8.03125 -0.984375 L -8.03125 -2.046875 L -6.28125 -2.046875 L -6.28125 -3.046875 L -5.421875 -3.046875 L -5.421875 -2.046875 L -1.3125 -2.046875 C -1.09375 -2.046875 -0.945312 -2.125 -0.875 -2.28125 C -0.832031 -2.351562 -0.8125 -2.488281 -0.8125 -2.6875 C -0.8125 -2.738281 -0.8125 -2.789062 -0.8125 -2.84375 C -0.820312 -2.90625 -0.828125 -2.972656 -0.828125 -3.046875 L 0 -3.046875 C 0.03125 -2.929688 0.0507812 -2.804688 0.0625 -2.671875 C 0.0820312 -2.546875 0.09375 -2.40625 0.09375 -2.25 C 0.09375 -1.757812 -0.03125 -1.425781 -0.28125 -1.25 C -0.53125 -1.070312 -0.859375 -0.984375 -1.265625 -0.984375 L -5.421875 -0.984375 L -5.421875 -0.140625 L -6.28125 -0.140625 L -6.28125 -0.984375 Z M -8.03125 -0.984375 "/>
</g>
<g id="glyph-1-18">
<path d="M -6.28125 -0.78125 L -6.28125 -1.78125 L -5.390625 -1.78125 C -5.753906 -2.070312 -6.015625 -2.382812 -6.171875 -2.71875 C -6.335938 -3.050781 -6.421875 -3.421875 -6.421875 -3.828125 C -6.421875 -4.710938 -6.109375 -5.3125 -5.484375 -5.625 C -5.140625 -5.800781 -4.65625 -5.890625 -4.03125 -5.890625 L 0 -5.890625 L 0 -4.8125 L -3.953125 -4.8125 C -4.335938 -4.8125 -4.644531 -4.753906 -4.875 -4.640625 C -5.269531 -4.453125 -5.46875 -4.113281 -5.46875 -3.625 C -5.46875 -3.375 -5.441406 -3.171875 -5.390625 -3.015625 C -5.304688 -2.722656 -5.132812 -2.46875 -4.875 -2.25 C -4.664062 -2.070312 -4.453125 -1.957031 -4.234375 -1.90625 C -4.015625 -1.851562 -3.695312 -1.828125 -3.28125 -1.828125 L 0 -1.828125 L 0 -0.78125 Z M -6.421875 -3.25 Z M -6.421875 -3.25 "/>
</g>
<g id="glyph-1-19">
<path d="M -3.0625 -1.4375 C -2.394531 -1.4375 -1.832031 -1.578125 -1.375 -1.859375 C -0.925781 -2.148438 -0.703125 -2.609375 -0.703125 -3.234375 C -0.703125 -3.722656 -0.910156 -4.125 -1.328125 -4.4375 C -1.742188 -4.757812 -2.347656 -4.921875 -3.140625 -4.921875 C -3.929688 -4.921875 -4.515625 -4.753906 -4.890625 -4.421875 C -5.273438 -4.097656 -5.46875 -3.703125 -5.46875 -3.234375 C -5.46875 -2.703125 -5.265625 -2.269531 -4.859375 -1.9375 C -4.453125 -1.601562 -3.851562 -1.4375 -3.0625 -1.4375 Z M -6.390625 -3.03125 C -6.390625 -3.507812 -6.285156 -3.910156 -6.078125 -4.234375 C -5.960938 -4.421875 -5.757812 -4.632812 -5.46875 -4.875 L -8.640625 -4.875 L -8.640625 -5.890625 L 0 -5.890625 L 0 -4.9375 L -0.875 -4.9375 C -0.488281 -4.695312 -0.207031 -4.40625 -0.03125 -4.0625 C 0.132812 -3.726562 0.21875 -3.34375 0.21875 -2.90625 C 0.21875 -2.207031 -0.0703125 -1.601562 -0.65625 -1.09375 C -1.25 -0.582031 -2.03125 -0.328125 -3 -0.328125 C -3.914062 -0.328125 -4.707031 -0.5625 -5.375 -1.03125 C -6.050781 -1.5 -6.390625 -2.164062 -6.390625 -3.03125 Z M -6.390625 -3.03125 "/>
</g>
<g id="glyph-1-20">
<path d="M -6.25 -0.78125 L -6.25 -1.84375 L 0 -1.84375 L 0 -0.78125 Z M -8.609375 -0.78125 L -8.609375 -1.84375 L -7.40625 -1.84375 L -7.40625 -0.78125 Z M -8.609375 -0.78125 "/>
</g>
<g id="glyph-1-21">
<path d="M -6.421875 -3.390625 C -6.421875 -3.835938 -6.316406 -4.269531 -6.109375 -4.6875 C -5.898438 -5.101562 -5.628906 -5.421875 -5.296875 -5.640625 C -4.972656 -5.847656 -4.601562 -5.988281 -4.1875 -6.0625 C -3.894531 -6.125 -3.429688 -6.15625 -2.796875 -6.15625 L -2.796875 -1.546875 C -2.160156 -1.566406 -1.648438 -1.71875 -1.265625 -2 C -0.878906 -2.28125 -0.6875 -2.71875 -0.6875 -3.3125 C -0.6875 -3.863281 -0.867188 -4.300781 -1.234375 -4.625 C -1.441406 -4.8125 -1.6875 -4.945312 -1.96875 -5.03125 L -1.96875 -6.0625 C -1.738281 -6.039062 -1.484375 -5.953125 -1.203125 -5.796875 C -0.921875 -5.640625 -0.6875 -5.46875 -0.5 -5.28125 C -0.1875 -4.957031 0.0195312 -4.554688 0.125 -4.078125 C 0.1875 -3.828125 0.21875 -3.539062 0.21875 -3.21875 C 0.21875 -2.4375 -0.0625 -1.773438 -0.625 -1.234375 C -1.195312 -0.691406 -1.992188 -0.421875 -3.015625 -0.421875 C -4.023438 -0.421875 -4.84375 -0.691406 -5.46875 -1.234375 C -6.101562 -1.785156 -6.421875 -2.503906 -6.421875 -3.390625 Z M -3.640625 -5.0625 C -4.097656 -5.019531 -4.460938 -4.921875 -4.734375 -4.765625 C -5.242188 -4.484375 -5.5 -4.003906 -5.5 -3.328125 C -5.5 -2.835938 -5.320312 -2.425781 -4.96875 -2.09375 C -4.625 -1.769531 -4.179688 -1.597656 -3.640625 -1.578125 Z M -6.421875 -3.28125 Z M -8.796875 -4.609375 L -7.109375 -3.046875 L -7.109375 -2.234375 L -8.796875 -3.296875 Z M -8.796875 -4.609375 "/>
</g>
<g id="glyph-1-22">
<path d="M -8.75 -3.546875 C -7.5625 -2.929688 -6.6875 -2.535156 -6.125 -2.359375 C -5.257812 -2.078125 -4.269531 -1.9375 -3.15625 -1.9375 C -2.019531 -1.9375 -0.984375 -2.097656 -0.046875 -2.421875 C 0.535156 -2.609375 1.367188 -2.988281 2.453125 -3.5625 L 2.453125 -2.859375 C 1.554688 -2.285156 0.984375 -1.929688 0.734375 -1.796875 C 0.492188 -1.660156 0.160156 -1.515625 -0.265625 -1.359375 C -0.835938 -1.140625 -1.453125 -0.984375 -2.109375 -0.890625 C -2.453125 -0.847656 -2.773438 -0.828125 -3.078125 -0.828125 C -4.234375 -0.828125 -5.265625 -1.007812 -6.171875 -1.375 C -6.742188 -1.601562 -7.601562 -2.082031 -8.75 -2.8125 Z M -8.75 -3.546875 "/>
</g>
<g id="glyph-1-23">
<path d="M 0 -1.65625 L 0 -0.25 L -4.40625 -3.328125 L -8.609375 -0.4375 L -8.609375 -1.90625 L -5.3125 -4.09375 L -8.609375 -6.28125 L -8.609375 -7.671875 L -4.40625 -4.78125 L 0 -7.8125 L 0 -6.359375 L -3.546875 -4.03125 Z M 0 -1.65625 "/>
</g>
<g id="glyph-1-24">
<path d="M 2.453125 -0.421875 C 1.242188 -1.035156 0.359375 -1.4375 -0.203125 -1.625 C -1.035156 -1.894531 -2.019531 -2.03125 -3.15625 -2.03125 C -4.28125 -2.03125 -5.3125 -1.867188 -6.25 -1.546875 C -6.832031 -1.359375 -7.664062 -0.976562 -8.75 -0.40625 L -8.75 -1.109375 C -7.789062 -1.710938 -7.195312 -2.078125 -6.96875 -2.203125 C -6.75 -2.328125 -6.441406 -2.460938 -6.046875 -2.609375 C -5.554688 -2.796875 -5.070312 -2.929688 -4.59375 -3.015625 C -4.113281 -3.097656 -3.65625 -3.140625 -3.21875 -3.140625 C -2.0625 -3.140625 -1.03125 -2.953125 -0.125 -2.578125 C 0.457031 -2.347656 1.316406 -1.875 2.453125 -1.15625 Z M 2.453125 -0.421875 "/>
</g>
<g id="glyph-2-0">
<path d="M 1.078125 -10.375 L 9.4375 -10.375 L 9.4375 0 L 1.078125 0 Z M 8.140625 -1.296875 L 8.140625 -9.078125 L 2.375 -9.078125 L 2.375 -1.296875 Z M 8.140625 -1.296875 "/>
</g>
<g id="glyph-2-1">
<path d="M 5.5625 0 L 1.09375 0 L 1.09375 -10.375 L 5.5625 -10.375 C 6.207031 -10.363281 6.742188 -10.285156 7.171875 -10.140625 C 7.898438 -9.898438 8.488281 -9.460938 8.9375 -8.828125 C 9.289062 -8.304688 9.535156 -7.742188 9.671875 -7.140625 C 9.804688 -6.546875 9.875 -5.976562 9.875 -5.4375 C 9.875 -4.0625 9.597656 -2.894531 9.046875 -1.9375 C 8.285156 -0.644531 7.125 0 5.5625 0 Z M 7.171875 -7.71875 C 6.835938 -8.28125 6.179688 -8.5625 5.203125 -8.5625 L 3.203125 -8.5625 L 3.203125 -1.796875 L 5.203125 -1.796875 C 6.222656 -1.796875 6.9375 -2.300781 7.34375 -3.3125 C 7.5625 -3.863281 7.671875 -4.523438 7.671875 -5.296875 C 7.671875 -6.347656 7.503906 -7.15625 7.171875 -7.71875 Z M 7.171875 -7.71875 "/>
</g>
<g id="glyph-2-2">
<path d="M 3 -7.671875 L 3 0 L 0.96875 0 L 0.96875 -7.671875 Z M 3 -10.4375 L 3 -8.578125 L 0.96875 -8.578125 L 0.96875 -10.4375 Z M 3 -10.4375 "/>
</g>
<g id="glyph-2-3">
<path d="M 6.21875 -7.3125 C 6.820312 -6.925781 7.164062 -6.265625 7.25 -5.328125 L 5.25 -5.328125 C 5.21875 -5.585938 5.144531 -5.789062 5.03125 -5.9375 C 4.8125 -6.21875 4.4375 -6.359375 3.90625 -6.359375 C 3.46875 -6.359375 3.15625 -6.285156 2.96875 -6.140625 C 2.78125 -6.003906 2.6875 -5.847656 2.6875 -5.671875 C 2.6875 -5.441406 2.785156 -5.273438 2.984375 -5.171875 C 3.179688 -5.066406 3.878906 -4.878906 5.078125 -4.609375 C 5.878906 -4.421875 6.476562 -4.140625 6.875 -3.765625 C 7.269531 -3.378906 7.46875 -2.898438 7.46875 -2.328125 C 7.46875 -1.566406 7.179688 -0.941406 6.609375 -0.453125 C 6.046875 0.0234375 5.175781 0.265625 4 0.265625 C 2.789062 0.265625 1.898438 0.0078125 1.328125 -0.5 C 0.753906 -1.007812 0.46875 -1.660156 0.46875 -2.453125 L 2.5 -2.453125 C 2.539062 -2.085938 2.628906 -1.832031 2.765625 -1.6875 C 3.015625 -1.414062 3.476562 -1.28125 4.15625 -1.28125 C 4.539062 -1.28125 4.847656 -1.335938 5.078125 -1.453125 C 5.316406 -1.578125 5.4375 -1.753906 5.4375 -1.984375 C 5.4375 -2.210938 5.34375 -2.382812 5.15625 -2.5 C 4.96875 -2.625 4.269531 -2.828125 3.0625 -3.109375 C 2.195312 -3.328125 1.585938 -3.597656 1.234375 -3.921875 C 0.878906 -4.234375 0.703125 -4.691406 0.703125 -5.296875 C 0.703125 -6.003906 0.976562 -6.613281 1.53125 -7.125 C 2.082031 -7.632812 2.863281 -7.890625 3.875 -7.890625 C 4.832031 -7.890625 5.613281 -7.695312 6.21875 -7.3125 Z M 6.21875 -7.3125 "/>
</g>
<g id="glyph-2-4">
<path d="M 4.453125 -1.421875 L 4.453125 0.078125 L 3.5 0.109375 C 2.550781 0.140625 1.898438 -0.0234375 1.546875 -0.390625 C 1.328125 -0.617188 1.21875 -0.972656 1.21875 -1.453125 L 1.21875 -6.171875 L 0.140625 -6.171875 L 0.140625 -7.59375 L 1.21875 -7.59375 L 1.21875 -9.734375 L 3.203125 -9.734375 L 3.203125 -7.59375 L 4.453125 -7.59375 L 4.453125 -6.171875 L 3.203125 -6.171875 L 3.203125 -2.125 C 3.203125 -1.800781 3.238281 -1.597656 3.3125 -1.515625 C 3.394531 -1.441406 3.640625 -1.40625 4.046875 -1.40625 C 4.109375 -1.40625 4.171875 -1.40625 4.234375 -1.40625 C 4.304688 -1.414062 4.378906 -1.421875 4.453125 -1.421875 Z M 4.453125 -1.421875 "/>
</g>
<g id="glyph-2-5">
<path d="M 1.21875 -6.84375 C 1.75 -7.507812 2.660156 -7.84375 3.953125 -7.84375 C 4.796875 -7.84375 5.539062 -7.675781 6.1875 -7.34375 C 6.84375 -7.007812 7.171875 -6.382812 7.171875 -5.46875 L 7.171875 -1.953125 C 7.171875 -1.703125 7.175781 -1.40625 7.1875 -1.0625 C 7.195312 -0.800781 7.234375 -0.625 7.296875 -0.53125 C 7.367188 -0.4375 7.46875 -0.359375 7.59375 -0.296875 L 7.59375 0 L 5.421875 0 C 5.359375 -0.15625 5.3125 -0.300781 5.28125 -0.4375 C 5.257812 -0.570312 5.242188 -0.726562 5.234375 -0.90625 C 4.953125 -0.601562 4.632812 -0.347656 4.28125 -0.140625 C 3.84375 0.109375 3.351562 0.234375 2.8125 0.234375 C 2.113281 0.234375 1.539062 0.0351562 1.09375 -0.359375 C 0.644531 -0.753906 0.421875 -1.316406 0.421875 -2.046875 C 0.421875 -2.984375 0.78125 -3.664062 1.5 -4.09375 C 1.90625 -4.320312 2.492188 -4.484375 3.265625 -4.578125 L 3.953125 -4.65625 C 4.316406 -4.707031 4.578125 -4.769531 4.734375 -4.84375 C 5.023438 -4.957031 5.171875 -5.144531 5.171875 -5.40625 C 5.171875 -5.71875 5.0625 -5.929688 4.84375 -6.046875 C 4.625 -6.171875 4.304688 -6.234375 3.890625 -6.234375 C 3.410156 -6.234375 3.070312 -6.117188 2.875 -5.890625 C 2.738281 -5.710938 2.644531 -5.476562 2.59375 -5.1875 L 0.65625 -5.1875 C 0.695312 -5.851562 0.882812 -6.40625 1.21875 -6.84375 Z M 2.71875 -1.453125 C 2.90625 -1.296875 3.132812 -1.21875 3.40625 -1.21875 C 3.832031 -1.21875 4.226562 -1.34375 4.59375 -1.59375 C 4.957031 -1.851562 5.144531 -2.316406 5.15625 -2.984375 L 5.15625 -3.734375 C 5.03125 -3.648438 4.90625 -3.582031 4.78125 -3.53125 C 4.65625 -3.476562 4.476562 -3.429688 4.25 -3.390625 L 3.796875 -3.3125 C 3.378906 -3.238281 3.078125 -3.144531 2.890625 -3.03125 C 2.578125 -2.851562 2.421875 -2.570312 2.421875 -2.1875 C 2.421875 -1.84375 2.519531 -1.597656 2.71875 -1.453125 Z M 2.71875 -1.453125 "/>
</g>
<g id="glyph-2-6">
<path d="M 4.546875 -6.1875 C 3.867188 -6.1875 3.398438 -5.894531 3.140625 -5.3125 C 3.015625 -5.007812 2.953125 -4.625 2.953125 -4.15625 L 2.953125 0 L 0.953125 0 L 0.953125 -7.65625 L 2.890625 -7.65625 L 2.890625 -6.53125 C 3.140625 -6.925781 3.378906 -7.210938 3.609375 -7.390625 C 4.023438 -7.691406 4.550781 -7.84375 5.1875 -7.84375 C 5.976562 -7.84375 6.625 -7.632812 7.125 -7.21875 C 7.632812 -6.8125 7.890625 -6.125 7.890625 -5.15625 L 7.890625 0 L 5.828125 0 L 5.828125 -4.65625 C 5.828125 -5.0625 5.773438 -5.375 5.671875 -5.59375 C 5.472656 -5.988281 5.097656 -6.1875 4.546875 -6.1875 Z M 4.546875 -6.1875 "/>
</g>
<g id="glyph-2-7">
<path d="M 7.5625 -4.921875 L 5.515625 -4.921875 C 5.472656 -5.203125 5.375 -5.457031 5.21875 -5.6875 C 5 -6 4.648438 -6.15625 4.171875 -6.15625 C 3.503906 -6.15625 3.046875 -5.820312 2.796875 -5.15625 C 2.660156 -4.789062 2.59375 -4.316406 2.59375 -3.734375 C 2.59375 -3.171875 2.660156 -2.71875 2.796875 -2.375 C 3.035156 -1.726562 3.484375 -1.40625 4.140625 -1.40625 C 4.609375 -1.40625 4.941406 -1.53125 5.140625 -1.78125 C 5.335938 -2.039062 5.457031 -2.375 5.5 -2.78125 L 7.546875 -2.78125 C 7.503906 -2.164062 7.285156 -1.585938 6.890625 -1.046875 C 6.253906 -0.171875 5.320312 0.265625 4.09375 0.265625 C 2.863281 0.265625 1.957031 -0.0976562 1.375 -0.828125 C 0.789062 -1.554688 0.5 -2.503906 0.5 -3.671875 C 0.5 -4.992188 0.816406 -6.019531 1.453125 -6.75 C 2.097656 -7.476562 2.988281 -7.84375 4.125 -7.84375 C 5.082031 -7.84375 5.867188 -7.628906 6.484375 -7.203125 C 7.097656 -6.773438 7.457031 -6.015625 7.5625 -4.921875 Z M 7.5625 -4.921875 "/>
</g>
<g id="glyph-2-8">
<path d="M 7.5 -2.25 C 7.445312 -1.789062 7.207031 -1.328125 6.78125 -0.859375 C 6.125 -0.117188 5.207031 0.25 4.03125 0.25 C 3.050781 0.25 2.1875 -0.0625 1.4375 -0.6875 C 0.695312 -1.3125 0.328125 -2.332031 0.328125 -3.75 C 0.328125 -5.082031 0.660156 -6.101562 1.328125 -6.8125 C 2.003906 -7.519531 2.878906 -7.875 3.953125 -7.875 C 4.597656 -7.875 5.175781 -7.753906 5.6875 -7.515625 C 6.195312 -7.273438 6.617188 -6.894531 6.953125 -6.375 C 7.253906 -5.925781 7.445312 -5.398438 7.53125 -4.796875 C 7.582031 -4.441406 7.601562 -3.9375 7.59375 -3.28125 L 2.34375 -3.28125 C 2.375 -2.507812 2.617188 -1.96875 3.078125 -1.65625 C 3.347656 -1.46875 3.679688 -1.375 4.078125 -1.375 C 4.484375 -1.375 4.816406 -1.488281 5.078125 -1.71875 C 5.222656 -1.84375 5.347656 -2.019531 5.453125 -2.25 Z M 5.515625 -4.59375 C 5.484375 -5.125 5.320312 -5.523438 5.03125 -5.796875 C 4.738281 -6.078125 4.378906 -6.21875 3.953125 -6.21875 C 3.492188 -6.21875 3.132812 -6.070312 2.875 -5.78125 C 2.625 -5.488281 2.46875 -5.09375 2.40625 -4.59375 Z M 5.515625 -4.59375 "/>
</g>
<g id="glyph-2-9">
</g>
<g id="glyph-2-10">
<path d="M 7.90625 -10.359375 L 7.90625 0 L 5.96875 0 L 5.96875 -1.0625 C 5.675781 -0.601562 5.347656 -0.269531 4.984375 -0.0625 C 4.617188 0.132812 4.164062 0.234375 3.625 0.234375 C 2.726562 0.234375 1.972656 -0.125 1.359375 -0.84375 C 0.742188 -1.570312 0.4375 -2.503906 0.4375 -3.640625 C 0.4375 -4.941406 0.738281 -5.96875 1.34375 -6.71875 C 1.945312 -7.46875 2.753906 -7.84375 3.765625 -7.84375 C 4.222656 -7.84375 4.632812 -7.738281 5 -7.53125 C 5.363281 -7.332031 5.65625 -7.054688 5.875 -6.703125 L 5.875 -10.359375 Z M 2.515625 -3.78125 C 2.515625 -3.070312 2.65625 -2.507812 2.9375 -2.09375 C 3.207031 -1.664062 3.628906 -1.453125 4.203125 -1.453125 C 4.765625 -1.453125 5.191406 -1.660156 5.484375 -2.078125 C 5.785156 -2.503906 5.9375 -3.050781 5.9375 -3.71875 C 5.9375 -4.65625 5.695312 -5.328125 5.21875 -5.734375 C 4.9375 -5.972656 4.601562 -6.09375 4.21875 -6.09375 C 3.625 -6.09375 3.191406 -5.867188 2.921875 -5.421875 C 2.648438 -4.984375 2.515625 -4.4375 2.515625 -3.78125 Z M 2.515625 -3.78125 "/>
</g>
<g id="glyph-2-11">
<path d="M 0.984375 -10.375 L 2.984375 -10.375 L 2.984375 0 L 0.984375 0 Z M 0.984375 -10.375 "/>
</g>
<g id="glyph-2-12">
<path d="M 0.703125 -10.375 L 2.609375 -10.375 L 2.265625 -6.078125 L 1.046875 -6.078125 Z M 0.703125 -10.375 "/>
</g>
<g id="glyph-2-13">
<path d="M 7.359375 -6.84375 C 7.972656 -6.1875 8.28125 -5.21875 8.28125 -3.9375 C 8.28125 -2.582031 7.976562 -1.550781 7.375 -0.84375 C 6.769531 -0.132812 5.988281 0.21875 5.03125 0.21875 C 4.414062 0.21875 3.910156 0.0664062 3.515625 -0.234375 C 3.285156 -0.410156 3.066406 -0.660156 2.859375 -0.984375 L 2.859375 3.015625 L 0.875 3.015625 L 0.875 -7.671875 L 2.796875 -7.671875 L 2.796875 -6.53125 C 3.015625 -6.863281 3.242188 -7.128906 3.484375 -7.328125 C 3.929688 -7.671875 4.460938 -7.84375 5.078125 -7.84375 C 5.972656 -7.84375 6.734375 -7.507812 7.359375 -6.84375 Z M 6.21875 -3.828125 C 6.21875 -4.421875 6.082031 -4.941406 5.8125 -5.390625 C 5.539062 -5.847656 5.101562 -6.078125 4.5 -6.078125 C 3.769531 -6.078125 3.269531 -5.734375 3 -5.046875 C 2.863281 -4.679688 2.796875 -4.21875 2.796875 -3.65625 C 2.796875 -2.769531 3.03125 -2.144531 3.5 -1.78125 C 3.78125 -1.570312 4.113281 -1.46875 4.5 -1.46875 C 5.0625 -1.46875 5.488281 -1.679688 5.78125 -2.109375 C 6.070312 -2.535156 6.21875 -3.109375 6.21875 -3.828125 Z M 6.21875 -3.828125 "/>
</g>
<g id="glyph-2-14">
<path d="M 0.1875 -7.671875 L 2.4375 -7.671875 L 4.03125 -2.015625 L 5.65625 -7.671875 L 7.8125 -7.671875 L 5.046875 0 L 2.9375 0 Z M 0.1875 -7.671875 "/>
</g>
<g id="glyph-2-15">
<path d="M 4.796875 -5.8125 C 3.984375 -5.8125 3.441406 -5.550781 3.171875 -5.03125 C 3.015625 -4.738281 2.9375 -4.285156 2.9375 -3.671875 L 2.9375 0 L 0.921875 0 L 0.921875 -7.671875 L 2.828125 -7.671875 L 2.828125 -6.328125 C 3.140625 -6.835938 3.410156 -7.1875 3.640625 -7.375 C 4.015625 -7.6875 4.5 -7.84375 5.09375 -7.84375 C 5.132812 -7.84375 5.164062 -7.84375 5.1875 -7.84375 C 5.21875 -7.84375 5.273438 -7.84375 5.359375 -7.84375 L 5.359375 -5.78125 C 5.234375 -5.789062 5.117188 -5.796875 5.015625 -5.796875 C 4.921875 -5.804688 4.847656 -5.8125 4.796875 -5.8125 Z M 4.796875 -5.8125 "/>
</g>
<g id="glyph-2-16">
<path d="M 5.09375 0.203125 C 4.46875 0.203125 3.960938 0.078125 3.578125 -0.171875 C 3.347656 -0.328125 3.097656 -0.59375 2.828125 -0.96875 L 2.828125 0 L 0.859375 0 L 0.859375 -10.359375 L 2.859375 -10.359375 L 2.859375 -6.671875 C 3.117188 -7.023438 3.398438 -7.296875 3.703125 -7.484375 C 4.054688 -7.722656 4.515625 -7.84375 5.078125 -7.84375 C 6.085938 -7.84375 6.875 -7.476562 7.4375 -6.75 C 8.007812 -6.019531 8.296875 -5.082031 8.296875 -3.9375 C 8.296875 -2.738281 8.015625 -1.75 7.453125 -0.96875 C 6.890625 -0.1875 6.101562 0.203125 5.09375 0.203125 Z M 6.203125 -3.71875 C 6.203125 -4.257812 6.128906 -4.710938 5.984375 -5.078125 C 5.710938 -5.742188 5.222656 -6.078125 4.515625 -6.078125 C 3.785156 -6.078125 3.285156 -5.75 3.015625 -5.09375 C 2.867188 -4.738281 2.796875 -4.285156 2.796875 -3.734375 C 2.796875 -3.078125 2.941406 -2.53125 3.234375 -2.09375 C 3.523438 -1.664062 3.96875 -1.453125 4.5625 -1.453125 C 5.082031 -1.453125 5.484375 -1.660156 5.765625 -2.078125 C 6.054688 -2.492188 6.203125 -3.039062 6.203125 -3.71875 Z M 6.203125 -3.71875 "/>
</g>
<g id="glyph-2-17">
<path d="M 7.5 -2.25 C 7.445312 -1.789062 7.207031 -1.328125 6.78125 -0.859375 C 6.125 -0.117188 5.207031 0.25 4.03125 0.25 C 3.050781 0.25 2.1875 -0.0625 1.4375 -0.6875 C 0.695312 -1.3125 0.328125 -2.332031 0.328125 -3.75 C 0.328125 -5.082031 0.660156 -6.101562 1.328125 -6.8125 C 2.003906 -7.519531 2.878906 -7.875 3.953125 -7.875 C 4.597656 -7.875 5.175781 -7.753906 5.6875 -7.515625 C 6.195312 -7.273438 6.617188 -6.894531 6.953125 -6.375 C 7.253906 -5.925781 7.445312 -5.398438 7.53125 -4.796875 C 7.582031 -4.441406 7.601562 -3.9375 7.59375 -3.28125 L 2.34375 -3.28125 C 2.375 -2.507812 2.617188 -1.96875 3.078125 -1.65625 C 3.347656 -1.46875 3.679688 -1.375 4.078125 -1.375 C 4.484375 -1.375 4.816406 -1.488281 5.078125 -1.71875 C 5.222656 -1.84375 5.347656 -2.019531 5.453125 -2.25 Z M 5.515625 -4.59375 C 5.484375 -5.125 5.320312 -5.523438 5.03125 -5.796875 C 4.738281 -6.078125 4.378906 -6.21875 3.953125 -6.21875 C 3.492188 -6.21875 3.132812 -6.070312 2.875 -5.78125 C 2.625 -5.488281 2.46875 -5.09375 2.40625 -4.59375 Z M 2.90625 -8.703125 L 4.265625 -10.8125 L 6.5 -10.8125 L 4.359375 -8.703125 Z M 2.90625 -8.703125 "/>
</g>
<g id="glyph-3-0">
<path d="M 0.3125 0 L 0.3125 -6.875 L 5.765625 -6.875 L 5.765625 0 Z M 4.90625 -0.859375 L 4.90625 -6.015625 L 1.171875 -6.015625 L 1.171875 -0.859375 Z M 4.90625 -0.859375 "/>
</g>
<g id="glyph-3-1">
<path d="M 0.9375 -6.875 L 1.890625 -6.875 L 1.890625 0 L 0.9375 0 Z M 0.9375 -6.875 "/>
</g>
<g id="glyph-3-2">
<path d="M 3.375 -0.796875 C 3.6875 -0.796875 3.945312 -0.828125 4.15625 -0.890625 C 4.507812 -1.015625 4.804688 -1.25 5.046875 -1.59375 C 5.222656 -1.875 5.351562 -2.234375 5.4375 -2.671875 C 5.488281 -2.921875 5.515625 -3.160156 5.515625 -3.390625 C 5.515625 -4.242188 5.34375 -4.90625 5 -5.375 C 4.664062 -5.84375 4.117188 -6.078125 3.359375 -6.078125 L 1.703125 -6.078125 L 1.703125 -0.796875 Z M 0.765625 -6.875 L 3.5625 -6.875 C 4.507812 -6.875 5.242188 -6.539062 5.765625 -5.875 C 6.222656 -5.269531 6.453125 -4.492188 6.453125 -3.546875 C 6.453125 -2.816406 6.316406 -2.15625 6.046875 -1.5625 C 5.566406 -0.519531 4.734375 0 3.546875 0 L 0.765625 0 Z M 0.765625 -6.875 "/>
</g>
<g id="glyph-3-3">
<path d="M 0.8125 -6.875 L 5.59375 -6.875 L 5.59375 -6.03125 L 1.75 -6.03125 L 1.75 -3.953125 L 5.125 -3.953125 L 5.125 -3.125 L 1.75 -3.125 L 1.75 0 L 0.8125 0 Z M 0.8125 -6.875 "/>
</g>
<g id="glyph-3-4">
<path d="M 3.625 -7.0625 C 4.5 -7.0625 5.175781 -6.832031 5.65625 -6.375 C 6.132812 -5.914062 6.398438 -5.394531 6.453125 -4.8125 L 5.546875 -4.8125 C 5.441406 -5.257812 5.234375 -5.613281 4.921875 -5.875 C 4.617188 -6.132812 4.191406 -6.265625 3.640625 -6.265625 C 2.960938 -6.265625 2.414062 -6.023438 2 -5.546875 C 1.582031 -5.066406 1.375 -4.335938 1.375 -3.359375 C 1.375 -2.546875 1.5625 -1.890625 1.9375 -1.390625 C 2.3125 -0.890625 2.875 -0.640625 3.625 -0.640625 C 4.3125 -0.640625 4.832031 -0.90625 5.1875 -1.4375 C 5.375 -1.707031 5.515625 -2.070312 5.609375 -2.53125 L 6.53125 -2.53125 C 6.445312 -1.800781 6.175781 -1.191406 5.71875 -0.703125 C 5.175781 -0.117188 4.441406 0.171875 3.515625 0.171875 C 2.710938 0.171875 2.039062 -0.0664062 1.5 -0.546875 C 0.78125 -1.191406 0.421875 -2.179688 0.421875 -3.515625 C 0.421875 -4.523438 0.691406 -5.359375 1.234375 -6.015625 C 1.804688 -6.710938 2.601562 -7.0625 3.625 -7.0625 Z M 3.4375 -7.0625 Z M 3.4375 -7.0625 "/>
</g>
<g id="glyph-3-5">
<path d="M 1.28125 -6.875 L 3.25 -1.015625 L 5.203125 -6.875 L 6.25 -6.875 L 3.734375 0 L 2.75 0 L 0.25 -6.875 Z M 1.28125 -6.875 "/>
</g>
<g id="glyph-3-6">
<path d="M 0.734375 -6.875 L 1.65625 -6.875 L 1.65625 -0.8125 L 5.140625 -0.8125 L 5.140625 0 L 0.734375 0 Z M 0.734375 -6.875 "/>
</g>
<g id="glyph-3-7">
<path d="M 3.3125 -3.96875 C 3.707031 -3.96875 4.015625 -4.023438 4.234375 -4.140625 C 4.578125 -4.304688 4.75 -4.613281 4.75 -5.0625 C 4.75 -5.507812 4.566406 -5.8125 4.203125 -5.96875 C 3.992188 -6.0625 3.6875 -6.109375 3.28125 -6.109375 L 1.625 -6.109375 L 1.625 -3.96875 Z M 3.625 -0.796875 C 4.195312 -0.796875 4.609375 -0.960938 4.859375 -1.296875 C 5.003906 -1.503906 5.078125 -1.753906 5.078125 -2.046875 C 5.078125 -2.546875 4.851562 -2.890625 4.40625 -3.078125 C 4.175781 -3.171875 3.863281 -3.21875 3.46875 -3.21875 L 1.625 -3.21875 L 1.625 -0.796875 Z M 0.703125 -6.875 L 3.65625 -6.875 C 4.46875 -6.875 5.039062 -6.632812 5.375 -6.15625 C 5.582031 -5.875 5.6875 -5.546875 5.6875 -5.171875 C 5.6875 -4.742188 5.5625 -4.390625 5.3125 -4.109375 C 5.1875 -3.960938 5.003906 -3.828125 4.765625 -3.703125 C 5.109375 -3.566406 5.367188 -3.414062 5.546875 -3.25 C 5.859375 -2.945312 6.015625 -2.535156 6.015625 -2.015625 C 6.015625 -1.566406 5.875 -1.164062 5.59375 -0.8125 C 5.175781 -0.269531 4.515625 0 3.609375 0 L 0.703125 0 Z M 0.703125 -6.875 "/>
</g>
<g id="glyph-3-8">
<path d="M 3.703125 -7.0625 C 4.910156 -7.0625 5.8125 -6.671875 6.40625 -5.890625 C 6.851562 -5.285156 7.078125 -4.507812 7.078125 -3.5625 C 7.078125 -2.53125 6.816406 -1.675781 6.296875 -1 C 5.679688 -0.195312 4.8125 0.203125 3.6875 0.203125 C 2.625 0.203125 1.789062 -0.144531 1.1875 -0.84375 C 0.644531 -1.519531 0.375 -2.375 0.375 -3.40625 C 0.375 -4.332031 0.601562 -5.128906 1.0625 -5.796875 C 1.65625 -6.640625 2.535156 -7.0625 3.703125 -7.0625 Z M 3.796875 -0.625 C 4.617188 -0.625 5.210938 -0.921875 5.578125 -1.515625 C 5.941406 -2.109375 6.125 -2.785156 6.125 -3.546875 C 6.125 -4.359375 5.910156 -5.007812 5.484375 -5.5 C 5.066406 -5.988281 4.488281 -6.234375 3.75 -6.234375 C 3.039062 -6.234375 2.460938 -5.988281 2.015625 -5.5 C 1.566406 -5.019531 1.34375 -4.300781 1.34375 -3.34375 C 1.34375 -2.582031 1.535156 -1.9375 1.921875 -1.40625 C 2.304688 -0.882812 2.929688 -0.625 3.796875 -0.625 Z M 3.734375 -7.0625 Z M 3.734375 -7.0625 "/>
</g>
<g id="glyph-3-9">
<path d="M 0.734375 -6.875 L 1.828125 -6.875 L 5.3125 -1.3125 L 5.3125 -6.875 L 6.1875 -6.875 L 6.1875 0 L 5.140625 0 L 1.625 -5.5625 L 1.625 0 L 0.734375 0 Z M 3.40625 -6.875 Z M 3.40625 -6.875 "/>
</g>
<g id="glyph-3-10">
<path d="M 3.9375 -3.734375 C 4.375 -3.734375 4.71875 -3.816406 4.96875 -3.984375 C 5.21875 -4.160156 5.34375 -4.476562 5.34375 -4.9375 C 5.34375 -5.425781 5.164062 -5.757812 4.8125 -5.9375 C 4.625 -6.03125 4.367188 -6.078125 4.046875 -6.078125 L 1.78125 -6.078125 L 1.78125 -3.734375 Z M 0.84375 -6.875 L 4.03125 -6.875 C 4.550781 -6.875 4.984375 -6.800781 5.328125 -6.65625 C 5.972656 -6.363281 6.296875 -5.820312 6.296875 -5.03125 C 6.296875 -4.613281 6.207031 -4.273438 6.03125 -4.015625 C 5.863281 -3.753906 5.628906 -3.539062 5.328125 -3.375 C 5.597656 -3.269531 5.800781 -3.128906 5.9375 -2.953125 C 6.070312 -2.773438 6.144531 -2.484375 6.15625 -2.078125 L 6.1875 -1.15625 C 6.195312 -0.894531 6.222656 -0.703125 6.265625 -0.578125 C 6.316406 -0.359375 6.414062 -0.21875 6.5625 -0.15625 L 6.5625 0 L 5.421875 0 C 5.390625 -0.0625 5.363281 -0.140625 5.34375 -0.234375 C 5.320312 -0.328125 5.304688 -0.503906 5.296875 -0.765625 L 5.234375 -1.921875 C 5.210938 -2.367188 5.046875 -2.671875 4.734375 -2.828125 C 4.554688 -2.910156 4.273438 -2.953125 3.890625 -2.953125 L 1.78125 -2.953125 L 1.78125 0 L 0.84375 0 Z M 0.84375 -6.875 "/>
</g>
<g id="glyph-3-11">
<path d="M 0.703125 -6.875 L 2.046875 -6.875 L 4.015625 -1.0625 L 5.984375 -6.875 L 7.296875 -6.875 L 7.296875 0 L 6.421875 0 L 6.421875 -4.0625 C 6.421875 -4.195312 6.421875 -4.425781 6.421875 -4.75 C 6.429688 -5.082031 6.4375 -5.429688 6.4375 -5.796875 L 4.46875 0 L 3.546875 0 L 1.578125 -5.796875 L 1.578125 -5.59375 C 1.578125 -5.425781 1.578125 -5.171875 1.578125 -4.828125 C 1.585938 -4.484375 1.59375 -4.226562 1.59375 -4.0625 L 1.59375 0 L 0.703125 0 Z M 0.703125 -6.875 "/>
</g>
<g id="glyph-3-12">
<path d="M 0.75 -6.875 L 1.703125 -6.875 L 1.703125 -4.03125 L 5.28125 -4.03125 L 5.28125 -6.875 L 6.21875 -6.875 L 6.21875 0 L 5.28125 0 L 5.28125 -3.21875 L 1.703125 -3.21875 L 1.703125 0 L 0.75 0 Z M 0.75 -6.875 "/>
</g>
<g id="glyph-3-13">
<path d="M 3.703125 -7.0625 C 4.347656 -7.0625 4.90625 -6.9375 5.375 -6.6875 C 6.0625 -6.320312 6.484375 -5.691406 6.640625 -4.796875 L 5.71875 -4.796875 C 5.601562 -5.296875 5.367188 -5.660156 5.015625 -5.890625 C 4.660156 -6.117188 4.21875 -6.234375 3.6875 -6.234375 C 3.039062 -6.234375 2.5 -5.992188 2.0625 -5.515625 C 1.632812 -5.046875 1.421875 -4.335938 1.421875 -3.390625 C 1.421875 -2.566406 1.597656 -1.898438 1.953125 -1.390625 C 2.316406 -0.878906 2.90625 -0.625 3.71875 -0.625 C 4.332031 -0.625 4.84375 -0.800781 5.25 -1.15625 C 5.664062 -1.519531 5.878906 -2.101562 5.890625 -2.90625 L 3.734375 -2.90625 L 3.734375 -3.6875 L 6.75 -3.6875 L 6.75 0 L 6.15625 0 L 5.921875 -0.890625 C 5.609375 -0.535156 5.332031 -0.289062 5.09375 -0.15625 C 4.675781 0.0703125 4.15625 0.1875 3.53125 0.1875 C 2.71875 0.1875 2.015625 -0.078125 1.421875 -0.609375 C 0.785156 -1.273438 0.46875 -2.179688 0.46875 -3.328125 C 0.46875 -4.484375 0.78125 -5.398438 1.40625 -6.078125 C 2 -6.734375 2.765625 -7.0625 3.703125 -7.0625 Z M 3.546875 -7.0625 Z M 3.546875 -7.0625 "/>
</g>
<g id="glyph-3-14">
<path d="M 0.8125 -6.875 L 5.84375 -6.875 L 5.84375 -6.03125 L 1.734375 -6.03125 L 1.734375 -3.953125 L 5.53125 -3.953125 L 5.53125 -3.15625 L 1.734375 -3.15625 L 1.734375 -0.8125 L 5.90625 -0.8125 L 5.90625 0 L 0.8125 0 Z M 3.359375 -6.875 Z M 3.359375 -6.875 "/>
</g>
<g id="glyph-3-15">
<path d="M 1.34375 -2.21875 C 1.363281 -1.832031 1.453125 -1.515625 1.609375 -1.265625 C 1.921875 -0.804688 2.46875 -0.578125 3.25 -0.578125 C 3.601562 -0.578125 3.921875 -0.628906 4.203125 -0.734375 C 4.765625 -0.929688 5.046875 -1.28125 5.046875 -1.78125 C 5.046875 -2.15625 4.925781 -2.421875 4.6875 -2.578125 C 4.445312 -2.734375 4.078125 -2.867188 3.578125 -2.984375 L 2.640625 -3.1875 C 2.035156 -3.332031 1.601562 -3.488281 1.34375 -3.65625 C 0.90625 -3.9375 0.6875 -4.363281 0.6875 -4.9375 C 0.6875 -5.550781 0.898438 -6.054688 1.328125 -6.453125 C 1.765625 -6.859375 2.375 -7.0625 3.15625 -7.0625 C 3.875 -7.0625 4.484375 -6.882812 4.984375 -6.53125 C 5.492188 -6.1875 5.75 -5.628906 5.75 -4.859375 L 4.875 -4.859375 C 4.820312 -5.234375 4.722656 -5.515625 4.578125 -5.703125 C 4.285156 -6.066406 3.800781 -6.25 3.125 -6.25 C 2.570312 -6.25 2.175781 -6.132812 1.9375 -5.90625 C 1.695312 -5.675781 1.578125 -5.40625 1.578125 -5.09375 C 1.578125 -4.757812 1.71875 -4.515625 2 -4.359375 C 2.1875 -4.253906 2.601562 -4.128906 3.25 -3.984375 L 4.21875 -3.765625 C 4.675781 -3.660156 5.035156 -3.515625 5.296875 -3.328125 C 5.734375 -3.003906 5.953125 -2.535156 5.953125 -1.921875 C 5.953125 -1.160156 5.671875 -0.613281 5.109375 -0.28125 C 4.554688 0.0390625 3.914062 0.203125 3.1875 0.203125 C 2.332031 0.203125 1.660156 -0.015625 1.171875 -0.453125 C 0.691406 -0.890625 0.457031 -1.476562 0.46875 -2.21875 Z M 3.21875 -7.0625 Z M 3.21875 -7.0625 "/>
</g>
<g id="glyph-3-16">
<path d="M 5.734375 -6.875 L 5.734375 -6.0625 L 3.421875 -6.0625 L 3.421875 0 L 2.46875 0 L 2.46875 -6.0625 L 0.15625 -6.0625 L 0.15625 -6.875 Z M 5.734375 -6.875 "/>
</g>
<g id="glyph-3-17">
<path d="M 0.8125 -6.875 L 3.921875 -6.875 C 4.523438 -6.875 5.015625 -6.703125 5.390625 -6.359375 C 5.765625 -6.015625 5.953125 -5.53125 5.953125 -4.90625 C 5.953125 -4.375 5.785156 -3.90625 5.453125 -3.5 C 5.117188 -3.101562 4.609375 -2.90625 3.921875 -2.90625 L 1.75 -2.90625 L 1.75 0 L 0.8125 0 Z M 5.015625 -4.90625 C 5.015625 -5.40625 4.828125 -5.75 4.453125 -5.9375 C 4.242188 -6.03125 3.960938 -6.078125 3.609375 -6.078125 L 1.75 -6.078125 L 1.75 -3.703125 L 3.609375 -3.703125 C 4.023438 -3.703125 4.363281 -3.789062 4.625 -3.96875 C 4.882812 -4.144531 5.015625 -4.457031 5.015625 -4.90625 Z M 5.015625 -4.90625 "/>
</g>
<g id="glyph-3-18">
<path d="M 4.265625 -2.8125 L 3.21875 -5.859375 L 2.109375 -2.8125 Z M 2.734375 -6.875 L 3.78125 -6.875 L 6.28125 0 L 5.265625 0 L 4.5625 -2.0625 L 1.84375 -2.0625 L 1.09375 0 L 0.140625 0 Z M 2.734375 -6.875 "/>
</g>
<g id="glyph-3-19">
<path d="M 7.03125 -0.015625 L 6.5625 0.546875 L 5.5 -0.265625 C 5.238281 -0.117188 4.957031 -0.00390625 4.65625 0.078125 C 4.363281 0.160156 4.039062 0.203125 3.6875 0.203125 C 2.613281 0.203125 1.773438 -0.144531 1.171875 -0.84375 C 0.640625 -1.53125 0.375 -2.382812 0.375 -3.40625 C 0.375 -4.332031 0.601562 -5.128906 1.0625 -5.796875 C 1.65625 -6.640625 2.535156 -7.0625 3.703125 -7.0625 C 4.910156 -7.0625 5.8125 -6.671875 6.40625 -5.890625 C 6.851562 -5.285156 7.078125 -4.507812 7.078125 -3.5625 C 7.078125 -3.113281 7.023438 -2.6875 6.921875 -2.28125 C 6.753906 -1.65625 6.472656 -1.144531 6.078125 -0.75 Z M 3.796875 -0.625 C 3.992188 -0.625 4.175781 -0.640625 4.34375 -0.671875 C 4.507812 -0.703125 4.65625 -0.753906 4.78125 -0.828125 L 4.03125 -1.421875 L 4.5 -2 L 5.390625 -1.296875 C 5.679688 -1.617188 5.875 -1.984375 5.96875 -2.390625 C 6.070312 -2.796875 6.125 -3.179688 6.125 -3.546875 C 6.125 -4.359375 5.910156 -5.007812 5.484375 -5.5 C 5.066406 -5.988281 4.488281 -6.234375 3.75 -6.234375 C 3.007812 -6.234375 2.421875 -5.992188 1.984375 -5.515625 C 1.554688 -5.046875 1.34375 -4.320312 1.34375 -3.34375 C 1.34375 -2.519531 1.550781 -1.859375 1.96875 -1.359375 C 2.382812 -0.867188 2.992188 -0.625 3.796875 -0.625 Z M 3.796875 -0.625 "/>
</g>
<g id="glyph-3-20">
<path d="M 1.75 -6.875 L 1.75 -2.625 C 1.75 -2.125 1.84375 -1.707031 2.03125 -1.375 C 2.300781 -0.875 2.765625 -0.625 3.421875 -0.625 C 4.210938 -0.625 4.753906 -0.894531 5.046875 -1.4375 C 5.191406 -1.738281 5.265625 -2.132812 5.265625 -2.625 L 5.265625 -6.875 L 6.21875 -6.875 L 6.21875 -3.015625 C 6.21875 -2.171875 6.101562 -1.519531 5.875 -1.0625 C 5.457031 -0.226562 4.664062 0.1875 3.5 0.1875 C 2.34375 0.1875 1.554688 -0.226562 1.140625 -1.0625 C 0.910156 -1.519531 0.796875 -2.171875 0.796875 -3.015625 L 0.796875 -6.875 Z M 3.515625 -6.875 Z M 3.515625 -6.875 "/>
</g>
</g>
<clipPath id="clip-0">
<path clip-rule="nonzero" d="M 59.039062 254 L 473.757812 254 L 473.757812 256 L 59.039062 256 Z M 59.039062 254 "/>
</clipPath>
<clipPath id="clip-1">
<path clip-rule="nonzero" d="M 59.039062 207 L 473.757812 207 L 473.757812 209 L 59.039062 209 Z M 59.039062 207 "/>
</clipPath>
<clipPath id="clip-2">
<path clip-rule="nonzero" d="M 59.039062 160 L 473.757812 160 L 473.757812 162 L 59.039062 162 Z M 59.039062 160 "/>
</clipPath>
<clipPath id="clip-3">
<path clip-rule="nonzero" d="M 59.039062 113 L 473.757812 113 L 473.757812 115 L 59.039062 115 Z M 59.039062 113 "/>
</clipPath>
<clipPath id="clip-4">
<path clip-rule="nonzero" d="M 59.039062 67 L 473.757812 67 L 473.757812 68 L 59.039062 68 Z M 59.039062 67 "/>
</clipPath>
<clipPath id="clip-5">
<path clip-rule="nonzero" d="M 78 59.039062 L 80 59.039062 L 80 286.558594 L 78 286.558594 Z M 78 59.039062 "/>
</clipPath>
<clipPath id="clip-6">
<path clip-rule="nonzero" d="M 172 59.039062 L 174 59.039062 L 174 286.558594 L 172 286.558594 Z M 172 59.039062 "/>
</clipPath>
<clipPath id="clip-7">
<path clip-rule="nonzero" d="M 266 59.039062 L 267 59.039062 L 267 286.558594 L 266 286.558594 Z M 266 59.039062 "/>
</clipPath>
<clipPath id="clip-8">
<path clip-rule="nonzero" d="M 359 59.039062 L 361 59.039062 L 361 286.558594 L 359 286.558594 Z M 359 59.039062 "/>
</clipPath>
<clipPath id="clip-9">
<path clip-rule="nonzero" d="M 453 59.039062 L 455 59.039062 L 455 286.558594 L 453 286.558594 Z M 453 59.039062 "/>
</clipPath>
</defs>
<rect x="-50.4" y="-36" width="604.8" height="432" fill="rgb(100%, 100%, 100%)" fill-opacity="1"/>
<path fill-rule="nonzero" fill="rgb(0%, 0%, 0%)" fill-opacity="1" stroke-width="0.75" stroke-linecap="round" stroke-linejoin="round" stroke="rgb(0%, 0%, 0%)" stroke-opacity="1" stroke-miterlimit="10" d="M 167.375 189.191406 C 167.375 191.589844 163.773438 191.589844 163.773438 189.191406 C 163.773438 186.792969 167.375 186.792969 167.375 189.191406 "/>
<path fill-rule="nonzero" fill="rgb(0%, 0%, 0%)" fill-opacity="1" stroke-width="0.75" stroke-linecap="round" stroke-linejoin="round" stroke="rgb(0%, 0%, 0%)" stroke-opacity="1" stroke-miterlimit="10" d="M 283.113281 202.777344 C 283.113281 205.179688 279.515625 205.179688 279.515625 202.777344 C 279.515625 200.378906 283.113281 200.378906 283.113281 202.777344 "/>
<path fill-rule="nonzero" fill="rgb(0%, 0%, 0%)" fill-opacity="1" stroke-width="0.75" stroke-linecap="round" stroke-linejoin="round" stroke="rgb(0%, 0%, 0%)" stroke-opacity="1" stroke-miterlimit="10" d="M 298.527344 209.808594 C 298.527344 212.210938 294.925781 212.210938 294.925781 209.808594 C 294.925781 207.410156 298.527344 207.410156 298.527344 209.808594 "/>
<path fill-rule="nonzero" fill="rgb(0%, 0%, 0%)" fill-opacity="1" stroke-width="0.75" stroke-linecap="round" stroke-linejoin="round" stroke="rgb(0%, 0%, 0%)" stroke-opacity="1" stroke-miterlimit="10" d="M 285.964844 244.226562 C 285.964844 246.625 282.367188 246.625 282.367188 244.226562 C 282.367188 241.824219 285.964844 241.824219 285.964844 244.226562 "/>
<path fill-rule="nonzero" fill="rgb(0%, 0%, 0%)" fill-opacity="1" stroke-width="0.75" stroke-linecap="round" stroke-linejoin="round" stroke="rgb(0%, 0%, 0%)" stroke-opacity="1" stroke-miterlimit="10" d="M 336.628906 246.535156 C 336.628906 248.933594 333.03125 248.933594 333.03125 246.535156 C 333.03125 244.136719 336.628906 244.136719 336.628906 246.535156 "/>
<path fill-rule="nonzero" fill="rgb(0%, 0%, 0%)" fill-opacity="1" stroke-width="0.75" stroke-linecap="round" stroke-linejoin="round" stroke="rgb(0%, 0%, 0%)" stroke-opacity="1" stroke-miterlimit="10" d="M 307.449219 197.132812 C 307.449219 199.535156 303.851562 199.535156 303.851562 197.132812 C 303.851562 194.734375 307.449219 194.734375 307.449219 197.132812 "/>
<path fill-rule="nonzero" fill="rgb(0%, 0%, 0%)" fill-opacity="1" stroke-width="0.75" stroke-linecap="round" stroke-linejoin="round" stroke="rgb(0%, 0%, 0%)" stroke-opacity="1" stroke-miterlimit="10" d="M 230.765625 240.601562 C 230.765625 243.003906 227.164062 243.003906 227.164062 240.601562 C 227.164062 238.203125 230.765625 238.203125 230.765625 240.601562 "/>
<path fill-rule="nonzero" fill="rgb(0%, 0%, 0%)" fill-opacity="1" stroke-width="0.75" stroke-linecap="round" stroke-linejoin="round" stroke="rgb(0%, 0%, 0%)" stroke-opacity="1" stroke-miterlimit="10" d="M 216.039062 265.863281 C 216.039062 268.261719 212.4375 268.261719 212.4375 265.863281 C 212.4375 263.460938 216.039062 263.460938 216.039062 265.863281 "/>
<path fill-rule="nonzero" fill="rgb(0%, 0%, 0%)" fill-opacity="1" stroke-width="0.75" stroke-linecap="round" stroke-linejoin="round" stroke="rgb(0%, 0%, 0%)" stroke-opacity="1" stroke-miterlimit="10" d="M 254.449219 224.949219 C 254.449219 227.347656 250.847656 227.347656 250.847656 224.949219 C 250.847656 222.546875 254.449219 222.546875 254.449219 224.949219 "/>
<path fill-rule="nonzero" fill="rgb(0%, 0%, 0%)" fill-opacity="1" stroke-width="0.75" stroke-linecap="round" stroke-linejoin="round" stroke="rgb(0%, 0%, 0%)" stroke-opacity="1" stroke-miterlimit="10" d="M 274.144531 197.25 C 274.144531 199.648438 270.542969 199.648438 270.542969 197.25 C 270.542969 194.851562 274.144531 194.851562 274.144531 197.25 "/>
<path fill-rule="nonzero" fill="rgb(0%, 0%, 0%)" fill-opacity="1" stroke-width="0.75" stroke-linecap="round" stroke-linejoin="round" stroke="rgb(0%, 0%, 0%)" stroke-opacity="1" stroke-miterlimit="10" d="M 254.269531 194.324219 C 254.269531 196.722656 250.667969 196.722656 250.667969 194.324219 C 250.667969 191.921875 254.269531 191.921875 254.269531 194.324219 "/>
<path fill-rule="nonzero" fill="rgb(0%, 0%, 0%)" fill-opacity="1" stroke-width="0.75" stroke-linecap="round" stroke-linejoin="round" stroke="rgb(0%, 0%, 0%)" stroke-opacity="1" stroke-miterlimit="10" d="M 309.675781 82.273438 C 309.675781 84.671875 306.074219 84.671875 306.074219 82.273438 C 306.074219 79.871094 309.675781 79.871094 309.675781 82.273438 "/>
<path fill="none" stroke-width="0.75" stroke-linecap="round" stroke-linejoin="round" stroke="rgb(0%, 0%, 0%)" stroke-opacity="1" stroke-miterlimit="10" d="M 79.140625 286.558594 L 453.660156 286.558594 "/>
<path fill="none" stroke-width="0.75" stroke-linecap="round" stroke-linejoin="round" stroke="rgb(0%, 0%, 0%)" stroke-opacity="1" stroke-miterlimit="10" d="M 79.140625 286.558594 L 79.140625 293.761719 "/>
<path fill="none" stroke-width="0.75" stroke-linecap="round" stroke-linejoin="round" stroke="rgb(0%, 0%, 0%)" stroke-opacity="1" stroke-miterlimit="10" d="M 172.769531 286.558594 L 172.769531 293.761719 "/>
<path fill="none" stroke-width="0.75" stroke-linecap="round" stroke-linejoin="round" stroke="rgb(0%, 0%, 0%)" stroke-opacity="1" stroke-miterlimit="10" d="M 266.398438 286.558594 L 266.398438 293.761719 "/>
<path fill="none" stroke-width="0.75" stroke-linecap="round" stroke-linejoin="round" stroke="rgb(0%, 0%, 0%)" stroke-opacity="1" stroke-miterlimit="10" d="M 360.03125 286.558594 L 360.03125 293.761719 "/>
<path fill="none" stroke-width="0.75" stroke-linecap="round" stroke-linejoin="round" stroke="rgb(0%, 0%, 0%)" stroke-opacity="1" stroke-miterlimit="10" d="M 453.660156 286.558594 L 453.660156 293.761719 "/>
<g fill="rgb(0%, 0%, 0%)" fill-opacity="1">
<use xlink:href="#glyph-0-1" x="73.640625" y="311.720703"/>
<use xlink:href="#glyph-0-2" x="77.640625" y="311.720703"/>
</g>
<g fill="rgb(0%, 0%, 0%)" fill-opacity="1">
<use xlink:href="#glyph-0-1" x="167.269531" y="311.720703"/>
<use xlink:href="#glyph-0-3" x="171.269531" y="311.720703"/>
</g>
<g fill="rgb(0%, 0%, 0%)" fill-opacity="1">
<use xlink:href="#glyph-0-4" x="262.898438" y="311.720703"/>
</g>
<g fill="rgb(0%, 0%, 0%)" fill-opacity="1">
<use xlink:href="#glyph-0-3" x="356.53125" y="311.720703"/>
</g>
<g fill="rgb(0%, 0%, 0%)" fill-opacity="1">
<use xlink:href="#glyph-0-2" x="450.160156" y="311.720703"/>
</g>
<path fill="none" stroke-width="0.75" stroke-linecap="round" stroke-linejoin="round" stroke="rgb(0%, 0%, 0%)" stroke-opacity="1" stroke-miterlimit="10" d="M 59.039062 254.726562 L 59.039062 67.464844 "/>
<path fill="none" stroke-width="0.75" stroke-linecap="round" stroke-linejoin="round" stroke="rgb(0%, 0%, 0%)" stroke-opacity="1" stroke-miterlimit="10" d="M 59.039062 254.726562 L 51.839844 254.726562 "/>
<path fill="none" stroke-width="0.75" stroke-linecap="round" stroke-linejoin="round" stroke="rgb(0%, 0%, 0%)" stroke-opacity="1" stroke-miterlimit="10" d="M 59.039062 207.910156 L 51.839844 207.910156 "/>
<path fill="none" stroke-width="0.75" stroke-linecap="round" stroke-linejoin="round" stroke="rgb(0%, 0%, 0%)" stroke-opacity="1" stroke-miterlimit="10" d="M 59.039062 161.097656 L 51.839844 161.097656 "/>
<path fill="none" stroke-width="0.75" stroke-linecap="round" stroke-linejoin="round" stroke="rgb(0%, 0%, 0%)" stroke-opacity="1" stroke-miterlimit="10" d="M 59.039062 114.28125 L 51.839844 114.28125 "/>
<path fill="none" stroke-width="0.75" stroke-linecap="round" stroke-linejoin="round" stroke="rgb(0%, 0%, 0%)" stroke-opacity="1" stroke-miterlimit="10" d="M 59.039062 67.464844 L 51.839844 67.464844 "/>
<g fill="rgb(0%, 0%, 0%)" fill-opacity="1">
<use xlink:href="#glyph-1-1" x="41.001953" y="260.226562"/>
<use xlink:href="#glyph-1-2" x="41.001953" y="256.226562"/>
</g>
<g fill="rgb(0%, 0%, 0%)" fill-opacity="1">
<use xlink:href="#glyph-1-3" x="41.001953" y="211.410156"/>
</g>
<g fill="rgb(0%, 0%, 0%)" fill-opacity="1">
<use xlink:href="#glyph-1-2" x="41.001953" y="164.597656"/>
</g>
<g fill="rgb(0%, 0%, 0%)" fill-opacity="1">
<use xlink:href="#glyph-1-4" x="41.001953" y="117.78125"/>
</g>
<g fill="rgb(0%, 0%, 0%)" fill-opacity="1">
<use xlink:href="#glyph-1-5" x="41.001953" y="70.964844"/>
</g>
<path fill="none" stroke-width="0.75" stroke-linecap="round" stroke-linejoin="round" stroke="rgb(0%, 0%, 0%)" stroke-opacity="1" stroke-miterlimit="10" d="M 59.039062 286.558594 L 473.761719 286.558594 L 473.761719 59.039062 L 59.039062 59.039062 Z M 59.039062 286.558594 "/>
<g fill="rgb(0%, 0%, 0%)" fill-opacity="1">
<use xlink:href="#glyph-2-1" x="84.398438" y="34.107422"/>
<use xlink:href="#glyph-2-2" x="94.398438" y="34.107422"/>
<use xlink:href="#glyph-2-3" x="98.398438" y="34.107422"/>
<use xlink:href="#glyph-2-4" x="106.398438" y="34.107422"/>
<use xlink:href="#glyph-2-5" x="111.398438" y="34.107422"/>
<use xlink:href="#glyph-2-6" x="119.398438" y="34.107422"/>
<use xlink:href="#glyph-2-7" x="128.398438" y="34.107422"/>
<use xlink:href="#glyph-2-8" x="136.398438" y="34.107422"/>
<use xlink:href="#glyph-2-3" x="144.398438" y="34.107422"/>
<use xlink:href="#glyph-2-9" x="152.398438" y="34.107422"/>
<use xlink:href="#glyph-2-10" x="156.398438" y="34.107422"/>
<use xlink:href="#glyph-2-5" x="165.398438" y="34.107422"/>
<use xlink:href="#glyph-2-6" x="173.398438" y="34.107422"/>
<use xlink:href="#glyph-2-3" x="182.398438" y="34.107422"/>
<use xlink:href="#glyph-2-9" x="190.398438" y="34.107422"/>
<use xlink:href="#glyph-2-11" x="194.398438" y="34.107422"/>
<use xlink:href="#glyph-2-12" x="198.398438" y="34.107422"/>
<use xlink:href="#glyph-2-8" x="201.398438" y="34.107422"/>
<use xlink:href="#glyph-2-3" x="209.398438" y="34.107422"/>
<use xlink:href="#glyph-2-13" x="217.398438" y="34.107422"/>
<use xlink:href="#glyph-2-5" x="226.398438" y="34.107422"/>
<use xlink:href="#glyph-2-7" x="234.398438" y="34.107422"/>
<use xlink:href="#glyph-2-8" x="242.398438" y="34.107422"/>
<use xlink:href="#glyph-2-9" x="250.398438" y="34.107422"/>
<use xlink:href="#glyph-2-10" x="254.398438" y="34.107422"/>
<use xlink:href="#glyph-2-8" x="263.398438" y="34.107422"/>
<use xlink:href="#glyph-2-3" x="271.398438" y="34.107422"/>
<use xlink:href="#glyph-2-9" x="279.398438" y="34.107422"/>
<use xlink:href="#glyph-2-14" x="283.398438" y="34.107422"/>
<use xlink:href="#glyph-2-5" x="291.398438" y="34.107422"/>
<use xlink:href="#glyph-2-15" x="299.398438" y="34.107422"/>
<use xlink:href="#glyph-2-2" x="305.398438" y="34.107422"/>
<use xlink:href="#glyph-2-5" x="309.398438" y="34.107422"/>
<use xlink:href="#glyph-2-16" x="317.398438" y="34.107422"/>
<use xlink:href="#glyph-2-11" x="326.398438" y="34.107422"/>
<use xlink:href="#glyph-2-8" x="330.398438" y="34.107422"/>
<use xlink:href="#glyph-2-3" x="338.398438" y="34.107422"/>
<use xlink:href="#glyph-2-9" x="346.398438" y="34.107422"/>
<use xlink:href="#glyph-2-3" x="350.398438" y="34.107422"/>
<use xlink:href="#glyph-2-4" x="358.398438" y="34.107422"/>
<use xlink:href="#glyph-2-5" x="363.398438" y="34.107422"/>
<use xlink:href="#glyph-2-6" x="371.398438" y="34.107422"/>
<use xlink:href="#glyph-2-10" x="380.398438" y="34.107422"/>
<use xlink:href="#glyph-2-5" x="389.398438" y="34.107422"/>
<use xlink:href="#glyph-2-15" x="397.398438" y="34.107422"/>
<use xlink:href="#glyph-2-10" x="403.398438" y="34.107422"/>
<use xlink:href="#glyph-2-2" x="412.398438" y="34.107422"/>
<use xlink:href="#glyph-2-3" x="416.398438" y="34.107422"/>
<use xlink:href="#glyph-2-17" x="424.398438" y="34.107422"/>
<use xlink:href="#glyph-2-8" x="432.398438" y="34.107422"/>
<use xlink:href="#glyph-2-3" x="440.398438" y="34.107422"/>
</g>
<g fill="rgb(0%, 0%, 0%)" fill-opacity="1">
<use xlink:href="#glyph-0-5" x="179.398438" y="340.521484"/>
<use xlink:href="#glyph-0-6" x="187.398438" y="340.521484"/>
<use xlink:href="#glyph-0-7" x="193.398438" y="340.521484"/>
<use xlink:href="#glyph-0-8" x="200.398438" y="340.521484"/>
<use xlink:href="#glyph-0-9" x="204.398438" y="340.521484"/>
<use xlink:href="#glyph-0-10" x="211.398438" y="340.521484"/>
<use xlink:href="#glyph-0-11" x="214.398438" y="340.521484"/>
<use xlink:href="#glyph-0-12" x="222.398438" y="340.521484"/>
<use xlink:href="#glyph-0-8" x="229.398438" y="340.521484"/>
<use xlink:href="#glyph-0-13" x="233.398438" y="340.521484"/>
<use xlink:href="#glyph-0-9" x="240.398438" y="340.521484"/>
<use xlink:href="#glyph-0-14" x="247.398438" y="340.521484"/>
<use xlink:href="#glyph-0-14" x="250.398438" y="340.521484"/>
<use xlink:href="#glyph-0-12" x="253.398438" y="340.521484"/>
<use xlink:href="#glyph-0-10" x="260.398438" y="340.521484"/>
<use xlink:href="#glyph-0-15" x="263.398438" y="340.521484"/>
<use xlink:href="#glyph-0-16" x="269.398438" y="340.521484"/>
<use xlink:href="#glyph-0-12" x="272.398438" y="340.521484"/>
<use xlink:href="#glyph-0-17" x="279.398438" y="340.521484"/>
<use xlink:href="#glyph-0-13" x="286.398438" y="340.521484"/>
<use xlink:href="#glyph-0-12" x="293.398438" y="340.521484"/>
<use xlink:href="#glyph-0-8" x="300.398438" y="340.521484"/>
<use xlink:href="#glyph-0-13" x="304.398438" y="340.521484"/>
<use xlink:href="#glyph-0-18" x="311.398438" y="340.521484"/>
<use xlink:href="#glyph-0-15" x="314.398438" y="340.521484"/>
<use xlink:href="#glyph-0-19" x="320.398438" y="340.521484"/>
<use xlink:href="#glyph-0-10" x="327.398438" y="340.521484"/>
<use xlink:href="#glyph-0-20" x="330.398438" y="340.521484"/>
<use xlink:href="#glyph-0-21" x="334.398438" y="340.521484"/>
<use xlink:href="#glyph-0-22" x="342.398438" y="340.521484"/>
<use xlink:href="#glyph-0-23" x="349.398438" y="340.521484"/>
</g>
<g fill="rgb(0%, 0%, 0%)" fill-opacity="1">
<use xlink:href="#glyph-1-6" x="12.201172" y="262.300781"/>
<use xlink:href="#glyph-1-7" x="12.201172" y="254.300781"/>
<use xlink:href="#glyph-1-8" x="12.201172" y="248.300781"/>
<use xlink:href="#glyph-1-9" x="12.201172" y="241.300781"/>
<use xlink:href="#glyph-1-10" x="12.201172" y="237.300781"/>
<use xlink:href="#glyph-1-11" x="12.201172" y="230.300781"/>
<use xlink:href="#glyph-1-12" x="12.201172" y="227.300781"/>
<use xlink:href="#glyph-1-13" x="12.201172" y="217.300781"/>
<use xlink:href="#glyph-1-9" x="12.201172" y="210.300781"/>
<use xlink:href="#glyph-1-10" x="12.201172" y="206.300781"/>
<use xlink:href="#glyph-1-7" x="12.201172" y="199.300781"/>
<use xlink:href="#glyph-1-14" x="12.201172" y="193.300781"/>
<use xlink:href="#glyph-1-13" x="12.201172" y="186.300781"/>
<use xlink:href="#glyph-1-15" x="12.201172" y="179.300781"/>
<use xlink:href="#glyph-1-11" x="12.201172" y="176.300781"/>
<use xlink:href="#glyph-1-16" x="12.201172" y="173.300781"/>
<use xlink:href="#glyph-1-17" x="12.201172" y="167.300781"/>
<use xlink:href="#glyph-1-13" x="12.201172" y="164.300781"/>
<use xlink:href="#glyph-1-18" x="12.201172" y="157.300781"/>
<use xlink:href="#glyph-1-19" x="12.201172" y="150.300781"/>
<use xlink:href="#glyph-1-13" x="12.201172" y="143.300781"/>
<use xlink:href="#glyph-1-9" x="12.201172" y="136.300781"/>
<use xlink:href="#glyph-1-19" x="12.201172" y="132.300781"/>
<use xlink:href="#glyph-1-20" x="12.201172" y="125.300781"/>
<use xlink:href="#glyph-1-16" x="12.201172" y="122.300781"/>
<use xlink:href="#glyph-1-21" x="12.201172" y="116.300781"/>
<use xlink:href="#glyph-1-11" x="12.201172" y="109.300781"/>
<use xlink:href="#glyph-1-22" x="12.201172" y="106.300781"/>
<use xlink:href="#glyph-1-23" x="12.201172" y="102.300781"/>
<use xlink:href="#glyph-1-4" x="12.201172" y="94.300781"/>
<use xlink:href="#glyph-1-24" x="12.201172" y="87.300781"/>
</g>
<g fill="rgb(100%, 0%, 0%)" fill-opacity="1">
<use xlink:href="#glyph-3-1" x="142.375" y="190.915039"/>
<use xlink:href="#glyph-3-2" x="145.375" y="190.915039"/>
<use xlink:href="#glyph-3-3" x="152.375" y="190.915039"/>
</g>
<g fill="rgb(100%, 0%, 0%)" fill-opacity="1">
<use xlink:href="#glyph-3-4" x="249.113281" y="204.500977"/>
<use xlink:href="#glyph-3-5" x="256.113281" y="204.500977"/>
<use xlink:href="#glyph-3-2" x="262.113281" y="204.500977"/>
<use xlink:href="#glyph-3-6" x="269.113281" y="204.500977"/>
</g>
<g fill="rgb(100%, 0%, 0%)" fill-opacity="1">
<use xlink:href="#glyph-3-7" x="263.527344" y="211.532227"/>
<use xlink:href="#glyph-3-8" x="269.527344" y="211.532227"/>
<use xlink:href="#glyph-3-3" x="276.527344" y="211.532227"/>
<use xlink:href="#glyph-3-4" x="282.527344" y="211.532227"/>
</g>
<g fill="rgb(100%, 0%, 0%)" fill-opacity="1">
<use xlink:href="#glyph-3-9" x="247.964844" y="245.950195"/>
<use xlink:href="#glyph-3-8" x="254.964844" y="245.950195"/>
<use xlink:href="#glyph-3-10" x="261.964844" y="245.950195"/>
<use xlink:href="#glyph-3-11" x="268.964844" y="245.950195"/>
</g>
<g fill="rgb(100%, 0%, 0%)" fill-opacity="1">
<use xlink:href="#glyph-3-12" x="300.628906" y="248.258789"/>
<use xlink:href="#glyph-3-2" x="307.628906" y="248.258789"/>
<use xlink:href="#glyph-3-3" x="314.628906" y="248.258789"/>
<use xlink:href="#glyph-3-10" x="320.628906" y="248.258789"/>
</g>
<g fill="rgb(100%, 0%, 0%)" fill-opacity="1">
<use xlink:href="#glyph-3-13" x="273.449219" y="198.860352"/>
<use xlink:href="#glyph-3-14" x="280.449219" y="198.860352"/>
<use xlink:href="#glyph-3-15" x="286.449219" y="198.860352"/>
<use xlink:href="#glyph-3-16" x="292.449219" y="198.860352"/>
</g>
<g fill="rgb(100%, 0%, 0%)" fill-opacity="1">
<use xlink:href="#glyph-3-17" x="196.765625" y="242.325195"/>
<use xlink:href="#glyph-3-2" x="202.765625" y="242.325195"/>
<use xlink:href="#glyph-3-6" x="209.765625" y="242.325195"/>
<use xlink:href="#glyph-3-8" x="214.765625" y="242.325195"/>
</g>
<g fill="rgb(100%, 0%, 0%)" fill-opacity="1">
<use xlink:href="#glyph-3-7" x="182.039062" y="267.586914"/>
<use xlink:href="#glyph-3-10" x="188.039062" y="267.586914"/>
<use xlink:href="#glyph-3-14" x="195.039062" y="267.586914"/>
<use xlink:href="#glyph-3-16" x="201.039062" y="267.586914"/>
</g>
<g fill="rgb(100%, 0%, 0%)" fill-opacity="1">
<use xlink:href="#glyph-3-9" x="218.449219" y="226.672852"/>
<use xlink:href="#glyph-3-18" x="225.449219" y="226.672852"/>
<use xlink:href="#glyph-3-19" x="231.449219" y="226.672852"/>
<use xlink:href="#glyph-3-20" x="238.449219" y="226.672852"/>
</g>
<g fill="rgb(100%, 0%, 0%)" fill-opacity="1">
<use xlink:href="#glyph-3-8" x="241.144531" y="198.973633"/>
<use xlink:href="#glyph-3-4" x="248.144531" y="198.973633"/>
<use xlink:href="#glyph-3-4" x="255.144531" y="198.973633"/>
<use xlink:href="#glyph-3-1" x="262.144531" y="198.973633"/>
</g>
<g fill="rgb(100%, 0%, 0%)" fill-opacity="1">
<use xlink:href="#glyph-3-18" x="219.269531" y="196.047852"/>
<use xlink:href="#glyph-3-20" x="225.269531" y="196.047852"/>
<use xlink:href="#glyph-3-10" x="232.269531" y="196.047852"/>
<use xlink:href="#glyph-3-18" x="239.269531" y="196.047852"/>
</g>
<g fill="rgb(100%, 0%, 0%)" fill-opacity="1">
<use xlink:href="#glyph-3-17" x="275.675781" y="83.99707"/>
<use xlink:href="#glyph-3-18" x="281.675781" y="83.99707"/>
<use xlink:href="#glyph-3-4" x="287.675781" y="83.99707"/>
<use xlink:href="#glyph-3-18" x="294.675781" y="83.99707"/>
</g>
<g clip-path="url(#clip-0)">
<path fill="none" stroke-width="0.75" stroke-linecap="round" stroke-linejoin="round" stroke="rgb(82.745098%, 82.745098%, 82.745098%)" stroke-opacity="1" stroke-dasharray="0.75 2.25" stroke-miterlimit="10" d="M 59.039062 254.726562 L 473.761719 254.726562 "/>
</g>
<g clip-path="url(#clip-1)">
<path fill="none" stroke-width="0.75" stroke-linecap="round" stroke-linejoin="round" stroke="rgb(82.745098%, 82.745098%, 82.745098%)" stroke-opacity="1" stroke-dasharray="0.75 2.25" stroke-miterlimit="10" d="M 59.039062 207.910156 L 473.761719 207.910156 "/>
</g>
<g clip-path="url(#clip-2)">
<path fill="none" stroke-width="0.75" stroke-linecap="round" stroke-linejoin="round" stroke="rgb(82.745098%, 82.745098%, 82.745098%)" stroke-opacity="1" stroke-dasharray="0.75 2.25" stroke-miterlimit="10" d="M 59.039062 161.097656 L 473.761719 161.097656 "/>
</g>
<g clip-path="url(#clip-3)">
<path fill="none" stroke-width="0.75" stroke-linecap="round" stroke-linejoin="round" stroke="rgb(82.745098%, 82.745098%, 82.745098%)" stroke-opacity="1" stroke-dasharray="0.75 2.25" stroke-miterlimit="10" d="M 59.039062 114.28125 L 473.761719 114.28125 "/>
</g>
<g clip-path="url(#clip-4)">
<path fill="none" stroke-width="0.75" stroke-linecap="round" stroke-linejoin="round" stroke="rgb(82.745098%, 82.745098%, 82.745098%)" stroke-opacity="1" stroke-dasharray="0.75 2.25" stroke-miterlimit="10" d="M 59.039062 67.464844 L 473.761719 67.464844 "/>
</g>
<g clip-path="url(#clip-5)">
<path fill="none" stroke-width="0.75" stroke-linecap="round" stroke-linejoin="round" stroke="rgb(82.745098%, 82.745098%, 82.745098%)" stroke-opacity="1" stroke-dasharray="0.75 2.25" stroke-miterlimit="10" d="M 79.140625 286.558594 L 79.140625 59.039062 "/>
</g>
<g clip-path="url(#clip-6)">
<path fill="none" stroke-width="0.75" stroke-linecap="round" stroke-linejoin="round" stroke="rgb(82.745098%, 82.745098%, 82.745098%)" stroke-opacity="1" stroke-dasharray="0.75 2.25" stroke-miterlimit="10" d="M 172.769531 286.558594 L 172.769531 59.039062 "/>
</g>
<g clip-path="url(#clip-7)">
<path fill="none" stroke-width="0.75" stroke-linecap="round" stroke-linejoin="round" stroke="rgb(82.745098%, 82.745098%, 82.745098%)" stroke-opacity="1" stroke-dasharray="0.75 2.25" stroke-miterlimit="10" d="M 266.398438 286.558594 L 266.398438 59.039062 "/>
</g>
<g clip-path="url(#clip-8)">
<path fill="none" stroke-width="0.75" stroke-linecap="round" stroke-linejoin="round" stroke="rgb(82.745098%, 82.745098%, 82.745098%)" stroke-opacity="1" stroke-dasharray="0.75 2.25" stroke-miterlimit="10" d="M 360.03125 286.558594 L 360.03125 59.039062 "/>
</g>
<g clip-path="url(#clip-9)">
<path fill="none" stroke-width="0.75" stroke-linecap="round" stroke-linejoin="round" stroke="rgb(82.745098%, 82.745098%, 82.745098%)" stroke-opacity="1" stroke-dasharray="0.75 2.25" stroke-miterlimit="10" d="M 453.660156 286.558594 L 453.660156 59.039062 "/>
</g>
</svg>
